<?xml version="1.0" encoding="UTF-8" standalone="no"?>
<!DOCTYPE svg PUBLIC "-//W3C//DTD SVG 1.1//EN"
 "http://www.w3.org/Graphics/SVG/1.1/DTD/svg11.dtd">
<!-- Generated by graphviz version 2.47.0 (20210316.0004)
 -->
<!-- Title: dependencies Pages: 1 -->
<svg width="504pt" height="284pt"
 viewBox="0.00 0.00 504.00 284.00" xmlns="http://www.w3.org/2000/svg" xmlns:xlink="http://www.w3.org/1999/xlink">
<g id="graph0" class="graph" transform="scale(1 1) rotate(0) translate(4 280)">
<title>dependencies</title>
<polygon fill="white" stroke="transparent" points="-4,4 -4,-280 500,-280 500,4 -4,4"/>
<text text-anchor="start" x="227.01" y="-42.4" font-family="Times-12" font-weight="bold" font-size="14.00">Legend</text>
<polygon fill="#ffffb3" stroke="transparent" points="14,-10 14,-30 34,-30 34,-10 14,-10"/>
<text text-anchor="start" x="37.63" y="-15.4" font-family="Times-12" font-size="14.00"> &#160;Declarations</text>
<polygon fill="#8dd3c7" stroke="transparent" points="127,-10 127,-30 147,-30 147,-10 127,-10"/>
<text text-anchor="start" x="150.73" y="-15.4" font-family="Times-12" font-size="14.00"> &#160;Module</text>
<polygon fill="#80b1d3" stroke="transparent" points="213,-10 213,-30 233,-30 233,-10 213,-10"/>
<text text-anchor="start" x="236.78" y="-15.4" font-family="Times-12" font-size="14.00"> &#160;Bootstrap</text>
<polygon fill="#fdb462" stroke="transparent" points="310,-10 310,-30 330,-30 330,-10 310,-10"/>
<text text-anchor="start" x="333.67" y="-15.4" font-family="Times-12" font-size="14.00"> &#160;Providers</text>
<polygon fill="#fb8072" stroke="transparent" points="406,-10 406,-30 426,-30 426,-10 406,-10"/>
<text text-anchor="start" x="429.73" y="-15.4" font-family="Times-12" font-size="14.00"> &#160;Exports</text>
<g id="clust1" class="cluster">
<title>cluster_DeviceModule</title>
<polygon fill="none" stroke="black" stroke-dasharray="1,5" points="87,-70 87,-268 409,-268 409,-70 87,-70"/>
</g>
<g id="clust6" class="cluster">
<title>cluster_DeviceModule_providers</title>
<polygon fill="none" stroke="black" points="251,-78 251,-130 401,-130 401,-78 251,-78"/>
</g>
<g id="clust3" class="cluster">
<title>cluster_DeviceModule_imports</title>
<polygon fill="none" stroke="black" points="95,-78 95,-130 243,-130 243,-78 95,-78"/>
</g>
<g id="clust4" class="cluster">
<title>cluster_DeviceModule_exports</title>
<polygon fill="none" stroke="black" points="188,-208 188,-260 306,-260 306,-208 188,-208"/>
</g>
<!-- CountrycodeModule -->
<g id="node1" class="node">
<title>CountrycodeModule</title>
<polygon fill="#8dd3c7" stroke="black" points="234.87,-122 231.87,-126 210.87,-126 207.87,-122 103.13,-122 103.13,-86 234.87,-86 234.87,-122"/>
<text text-anchor="middle" x="169" y="-99.8" font-family="Times,serif" font-size="14.00">CountrycodeModule</text>
</g>
<!-- DeviceModule -->
<g id="node2" class="node">
<title>DeviceModule</title>
<polygon fill="#8dd3c7" stroke="black" points="296.69,-187 293.69,-191 272.69,-191 269.69,-187 197.31,-187 197.31,-151 296.69,-151 296.69,-187"/>
<text text-anchor="middle" x="247" y="-164.8" font-family="Times,serif" font-size="14.00">DeviceModule</text>
</g>
<!-- CountrycodeModule&#45;&gt;DeviceModule -->
<g id="edge1" class="edge">
<title>CountrycodeModule&#45;&gt;DeviceModule</title>
<path fill="none" stroke="black" d="M216.17,-122.11C216.17,-122.11 216.17,-140.99 216.17,-140.99"/>
<polygon fill="black" stroke="black" points="212.67,-140.99 216.17,-150.99 219.67,-140.99 212.67,-140.99"/>
</g>
<!-- DeviceService  -->
<g id="node3" class="node">
<title>DeviceService </title>
<polygon fill="#fb8072" stroke="black" points="297.62,-252 196.38,-252 196.38,-216 297.62,-216 297.62,-252"/>
<text text-anchor="middle" x="247" y="-229.8" font-family="Times,serif" font-size="14.00">DeviceService </text>
</g>
<!-- DeviceModule&#45;&gt;DeviceService  -->
<g id="edge2" class="edge">
<title>DeviceModule&#45;&gt;DeviceService </title>
<path fill="none" stroke="black" stroke-dasharray="5,2" d="M247,-187.11C247,-187.11 247,-205.99 247,-205.99"/>
<polygon fill="black" stroke="black" points="243.5,-205.99 247,-215.99 250.5,-205.99 243.5,-205.99"/>
</g>
<!-- DeviceService -->
<g id="node4" class="node">
<title>DeviceService</title>
<ellipse fill="#fdb462" stroke="black" cx="326" cy="-104" rx="67.17" ry="18"/>
<text text-anchor="middle" x="326" y="-99.8" font-family="Times,serif" font-size="14.00">DeviceService</text>
</g>
<!-- DeviceService&#45;&gt;DeviceModule -->
<g id="edge3" class="edge">
<title>DeviceService&#45;&gt;DeviceModule</title>
<path fill="none" stroke="black" d="M277.63,-116.53C277.63,-116.53 277.63,-140.85 277.63,-140.85"/>
<polygon fill="black" stroke="black" points="274.13,-140.85 277.63,-150.85 281.13,-140.85 274.13,-140.85"/>
</g>
</g>
</svg>
