<?xml version="1.0" encoding="UTF-8" standalone="no"?>
<!DOCTYPE svg PUBLIC "-//W3C//DTD SVG 1.1//EN"
 "http://www.w3.org/Graphics/SVG/1.1/DTD/svg11.dtd">
<!-- Generated by graphviz version 2.47.0 (20210316.0004)
 -->
<!-- Title: dependencies Pages: 1 -->
<svg width="504pt" height="284pt"
 viewBox="0.00 0.00 504.00 284.00" xmlns="http://www.w3.org/2000/svg" xmlns:xlink="http://www.w3.org/1999/xlink">
<g id="graph0" class="graph" transform="scale(1 1) rotate(0) translate(4 280)">
<title>dependencies</title>
<polygon fill="white" stroke="transparent" points="-4,4 -4,-280 500,-280 500,4 -4,4"/>
<text text-anchor="start" x="227.01" y="-42.4" font-family="Times-12" font-weight="bold" font-size="14.00">Legend</text>
<polygon fill="#ffffb3" stroke="transparent" points="14,-10 14,-30 34,-30 34,-10 14,-10"/>
<text text-anchor="start" x="37.63" y="-15.4" font-family="Times-12" font-size="14.00"> &#160;Declarations</text>
<polygon fill="#8dd3c7" stroke="transparent" points="127,-10 127,-30 147,-30 147,-10 127,-10"/>
<text text-anchor="start" x="150.73" y="-15.4" font-family="Times-12" font-size="14.00"> &#160;Module</text>
<polygon fill="#80b1d3" stroke="transparent" points="213,-10 213,-30 233,-30 233,-10 213,-10"/>
<text text-anchor="start" x="236.78" y="-15.4" font-family="Times-12" font-size="14.00"> &#160;Bootstrap</text>
<polygon fill="#fdb462" stroke="transparent" points="310,-10 310,-30 330,-30 330,-10 310,-10"/>
<text text-anchor="start" x="333.67" y="-15.4" font-family="Times-12" font-size="14.00"> &#160;Providers</text>
<polygon fill="#fb8072" stroke="transparent" points="406,-10 406,-30 426,-30 426,-10 406,-10"/>
<text text-anchor="start" x="429.73" y="-15.4" font-family="Times-12" font-size="14.00"> &#160;Exports</text>
<g id="clust1" class="cluster">
<title>cluster_DeviceModule</title>
<polygon fill="none" stroke="black" stroke-dasharray="1,5" points="35,-70 35,-268 461,-268 461,-70 35,-70"/>
</g>
<g id="clust3" class="cluster">
<title>cluster_DeviceModule_imports</title>
<polygon fill="none" stroke="black" points="201,-78 201,-130 453,-130 453,-78 201,-78"/>
</g>
<g id="clust6" class="cluster">
<title>cluster_DeviceModule_providers</title>
<polygon fill="none" stroke="black" points="43,-78 43,-130 193,-130 193,-78 43,-78"/>
</g>
<g id="clust4" class="cluster">
<title>cluster_DeviceModule_exports</title>
<polygon fill="none" stroke="black" points="193,-208 193,-260 311,-260 311,-208 193,-208"/>
</g>
<!-- CountrycodeModule -->
<g id="node1" class="node">
<title>CountrycodeModule</title>
<polygon fill="#8dd3c7" stroke="black" points="444.87,-122 441.87,-126 420.87,-126 417.87,-122 313.13,-122 313.13,-86 444.87,-86 444.87,-122"/>
<text text-anchor="middle" x="379" y="-99.8" font-family="Times,serif" font-size="14.00">CountrycodeModule</text>
</g>
<!-- DeviceModule -->
<g id="node3" class="node">
<title>DeviceModule</title>
<polygon fill="#8dd3c7" stroke="black" points="301.69,-187 298.69,-191 277.69,-191 274.69,-187 202.31,-187 202.31,-151 301.69,-151 301.69,-187"/>
<text text-anchor="middle" x="252" y="-164.8" font-family="Times,serif" font-size="14.00">DeviceModule</text>
</g>
<!-- CountrycodeModule&#45;&gt;DeviceModule -->
<g id="edge1" class="edge">
<title>CountrycodeModule&#45;&gt;DeviceModule</title>
<path fill="none" stroke="black" d="M379,-122.11C379,-141.34 379,-169 379,-169 379,-169 311.83,-169 311.83,-169"/>
<polygon fill="black" stroke="black" points="311.83,-165.5 301.83,-169 311.83,-172.5 311.83,-165.5"/>
</g>
<!-- UserModule -->
<g id="node2" class="node">
<title>UserModule</title>
<polygon fill="#8dd3c7" stroke="black" points="294.98,-122 291.98,-126 270.98,-126 267.98,-122 209.02,-122 209.02,-86 294.98,-86 294.98,-122"/>
<text text-anchor="middle" x="252" y="-99.8" font-family="Times,serif" font-size="14.00">UserModule</text>
</g>
<!-- UserModule&#45;&gt;DeviceModule -->
<g id="edge2" class="edge">
<title>UserModule&#45;&gt;DeviceModule</title>
<path fill="none" stroke="black" d="M252,-122.11C252,-122.11 252,-140.99 252,-140.99"/>
<polygon fill="black" stroke="black" points="248.5,-140.99 252,-150.99 255.5,-140.99 248.5,-140.99"/>
</g>
<!-- DeviceService  -->
<g id="node4" class="node">
<title>DeviceService </title>
<polygon fill="#fb8072" stroke="black" points="302.62,-252 201.38,-252 201.38,-216 302.62,-216 302.62,-252"/>
<text text-anchor="middle" x="252" y="-229.8" font-family="Times,serif" font-size="14.00">DeviceService </text>
</g>
<!-- DeviceModule&#45;&gt;DeviceService  -->
<g id="edge3" class="edge">
<title>DeviceModule&#45;&gt;DeviceService </title>
<path fill="none" stroke="black" stroke-dasharray="5,2" d="M252,-187.11C252,-187.11 252,-205.99 252,-205.99"/>
<polygon fill="black" stroke="black" points="248.5,-205.99 252,-215.99 255.5,-205.99 248.5,-205.99"/>
</g>
<!-- DeviceService -->
<g id="node5" class="node">
<title>DeviceService</title>
<ellipse fill="#fdb462" stroke="black" cx="118" cy="-104" rx="67.17" ry="18"/>
<text text-anchor="middle" x="118" y="-99.8" font-family="Times,serif" font-size="14.00">DeviceService</text>
</g>
<!-- DeviceService&#45;&gt;DeviceModule -->
<g id="edge4" class="edge">
<title>DeviceService&#45;&gt;DeviceModule</title>
<path fill="none" stroke="black" d="M118,-122.11C118,-141.34 118,-169 118,-169 118,-169 192.1,-169 192.1,-169"/>
<polygon fill="black" stroke="black" points="192.1,-172.5 202.1,-169 192.1,-165.5 192.1,-172.5"/>
</g>
</g>
</svg>
