<?xml version="1.0" encoding="UTF-8" standalone="no"?>
<!DOCTYPE svg PUBLIC "-//W3C//DTD SVG 1.1//EN"
 "http://www.w3.org/Graphics/SVG/1.1/DTD/svg11.dtd">
<!-- Generated by graphviz version 2.47.0 (20210316.0004)
 -->
<!-- Title: dependencies Pages: 1 -->
<svg width="504pt" height="284pt"
 viewBox="0.00 0.00 504.00 284.00" xmlns="http://www.w3.org/2000/svg" xmlns:xlink="http://www.w3.org/1999/xlink">
<g id="graph0" class="graph" transform="scale(1 1) rotate(0) translate(4 280)">
<title>dependencies</title>
<polygon fill="white" stroke="transparent" points="-4,4 -4,-280 500,-280 500,4 -4,4"/>
<text text-anchor="start" x="227.01" y="-42.4" font-family="Times-12" font-weight="bold" font-size="14.00">Legend</text>
<polygon fill="#ffffb3" stroke="transparent" points="14,-10 14,-30 34,-30 34,-10 14,-10"/>
<text text-anchor="start" x="37.63" y="-15.4" font-family="Times-12" font-size="14.00"> &#160;Declarations</text>
<polygon fill="#8dd3c7" stroke="transparent" points="127,-10 127,-30 147,-30 147,-10 127,-10"/>
<text text-anchor="start" x="150.73" y="-15.4" font-family="Times-12" font-size="14.00"> &#160;Module</text>
<polygon fill="#80b1d3" stroke="transparent" points="213,-10 213,-30 233,-30 233,-10 213,-10"/>
<text text-anchor="start" x="236.78" y="-15.4" font-family="Times-12" font-size="14.00"> &#160;Bootstrap</text>
<polygon fill="#fdb462" stroke="transparent" points="310,-10 310,-30 330,-30 330,-10 310,-10"/>
<text text-anchor="start" x="333.67" y="-15.4" font-family="Times-12" font-size="14.00"> &#160;Providers</text>
<polygon fill="#fb8072" stroke="transparent" points="406,-10 406,-30 426,-30 426,-10 406,-10"/>
<text text-anchor="start" x="429.73" y="-15.4" font-family="Times-12" font-size="14.00"> &#160;Exports</text>
<g id="clust1" class="cluster">
<title>cluster_YieldConfigModule</title>
<polygon fill="none" stroke="black" stroke-dasharray="1,5" points="89,-70 89,-268 407,-268 407,-70 89,-70"/>
</g>
<g id="clust3" class="cluster">
<title>cluster_YieldConfigModule_imports</title>
<polygon fill="none" stroke="black" points="297,-78 297,-130 399,-130 399,-78 297,-78"/>
</g>
<g id="clust4" class="cluster">
<title>cluster_YieldConfigModule_exports</title>
<polygon fill="none" stroke="black" points="185,-208 185,-260 333,-260 333,-208 185,-208"/>
</g>
<g id="clust6" class="cluster">
<title>cluster_YieldConfigModule_providers</title>
<polygon fill="none" stroke="black" points="97,-78 97,-130 289,-130 289,-78 97,-78"/>
</g>
<!-- UserModule -->
<g id="node1" class="node">
<title>UserModule</title>
<polygon fill="#8dd3c7" stroke="black" points="390.98,-122 387.98,-126 366.98,-126 363.98,-122 305.02,-122 305.02,-86 390.98,-86 390.98,-122"/>
<text text-anchor="middle" x="348" y="-99.8" font-family="Times,serif" font-size="14.00">UserModule</text>
</g>
<!-- YieldConfigModule -->
<g id="node2" class="node">
<title>YieldConfigModule</title>
<polygon fill="#8dd3c7" stroke="black" points="323.54,-187 320.54,-191 299.54,-191 296.54,-187 194.46,-187 194.46,-151 323.54,-151 323.54,-187"/>
<text text-anchor="middle" x="259" y="-164.8" font-family="Times,serif" font-size="14.00">YieldConfigModule</text>
</g>
<!-- UserModule&#45;&gt;YieldConfigModule -->
<g id="edge1" class="edge">
<title>UserModule&#45;&gt;YieldConfigModule</title>
<path fill="none" stroke="black" d="M314.39,-122.11C314.39,-122.11 314.39,-140.99 314.39,-140.99"/>
<polygon fill="black" stroke="black" points="310.89,-140.99 314.39,-150.99 317.89,-140.99 310.89,-140.99"/>
</g>
<!-- YieldConfigService  -->
<g id="node3" class="node">
<title>YieldConfigService </title>
<polygon fill="#fb8072" stroke="black" points="324.97,-252 193.03,-252 193.03,-216 324.97,-216 324.97,-252"/>
<text text-anchor="middle" x="259" y="-229.8" font-family="Times,serif" font-size="14.00">YieldConfigService </text>
</g>
<!-- YieldConfigModule&#45;&gt;YieldConfigService  -->
<g id="edge2" class="edge">
<title>YieldConfigModule&#45;&gt;YieldConfigService </title>
<path fill="none" stroke="black" stroke-dasharray="5,2" d="M259,-187.11C259,-187.11 259,-205.99 259,-205.99"/>
<polygon fill="black" stroke="black" points="255.5,-205.99 259,-215.99 262.5,-205.99 255.5,-205.99"/>
</g>
<!-- YieldConfigService -->
<g id="node4" class="node">
<title>YieldConfigService</title>
<ellipse fill="#fdb462" stroke="black" cx="193" cy="-104" rx="88.04" ry="18"/>
<text text-anchor="middle" x="193" y="-99.8" font-family="Times,serif" font-size="14.00">YieldConfigService</text>
</g>
<!-- YieldConfigService&#45;&gt;YieldConfigModule -->
<g id="edge3" class="edge">
<title>YieldConfigService&#45;&gt;YieldConfigModule</title>
<path fill="none" stroke="black" d="M237.75,-119.73C237.75,-119.73 237.75,-140.65 237.75,-140.65"/>
<polygon fill="black" stroke="black" points="234.25,-140.65 237.75,-150.65 241.25,-140.65 234.25,-140.65"/>
</g>
</g>
</svg>
