<?xml version="1.0" encoding="UTF-8" standalone="no"?>
<!DOCTYPE svg PUBLIC "-//W3C//DTD SVG 1.1//EN"
 "http://www.w3.org/Graphics/SVG/1.1/DTD/svg11.dtd">
<!-- Generated by graphviz version 2.47.0 (20210316.0004)
 -->
<!-- Title: dependencies Pages: 1 -->
<svg width="1093pt" height="284pt"
 viewBox="0.00 0.00 1093.00 284.00" xmlns="http://www.w3.org/2000/svg" xmlns:xlink="http://www.w3.org/1999/xlink">
<g id="graph0" class="graph" transform="scale(1 1) rotate(0) translate(4 280)">
<title>dependencies</title>
<polygon fill="white" stroke="transparent" points="-4,4 -4,-280 1089,-280 1089,4 -4,4"/>
<text text-anchor="start" x="521.51" y="-42.4" font-family="Times-12" font-weight="bold" font-size="14.00">Legend</text>
<polygon fill="#ffffb3" stroke="transparent" points="308.5,-10 308.5,-30 328.5,-30 328.5,-10 308.5,-10"/>
<text text-anchor="start" x="332.13" y="-15.4" font-family="Times-12" font-size="14.00"> &#160;Declarations</text>
<polygon fill="#8dd3c7" stroke="transparent" points="421.5,-10 421.5,-30 441.5,-30 441.5,-10 421.5,-10"/>
<text text-anchor="start" x="445.23" y="-15.4" font-family="Times-12" font-size="14.00"> &#160;Module</text>
<polygon fill="#80b1d3" stroke="transparent" points="507.5,-10 507.5,-30 527.5,-30 527.5,-10 507.5,-10"/>
<text text-anchor="start" x="531.28" y="-15.4" font-family="Times-12" font-size="14.00"> &#160;Bootstrap</text>
<polygon fill="#fdb462" stroke="transparent" points="604.5,-10 604.5,-30 624.5,-30 624.5,-10 604.5,-10"/>
<text text-anchor="start" x="628.17" y="-15.4" font-family="Times-12" font-size="14.00"> &#160;Providers</text>
<polygon fill="#fb8072" stroke="transparent" points="700.5,-10 700.5,-30 720.5,-30 720.5,-10 700.5,-10"/>
<text text-anchor="start" x="724.23" y="-15.4" font-family="Times-12" font-size="14.00"> &#160;Exports</text>
<g id="clust1" class="cluster">
<title>cluster_AuthModule</title>
<polygon fill="none" stroke="black" stroke-dasharray="1,5" points="8,-70 8,-268 1077,-268 1077,-70 8,-70"/>
</g>
<g id="clust3" class="cluster">
<title>cluster_AuthModule_imports</title>
<polygon fill="none" stroke="black" points="677,-78 677,-130 1069,-130 1069,-78 677,-78"/>
</g>
<g id="clust6" class="cluster">
<title>cluster_AuthModule_providers</title>
<polygon fill="none" stroke="black" points="16,-78 16,-130 669,-130 669,-78 16,-78"/>
</g>
<g id="clust4" class="cluster">
<title>cluster_AuthModule_exports</title>
<polygon fill="none" stroke="black" points="549,-208 549,-260 655,-260 655,-208 549,-208"/>
</g>
<!-- OrganizationModule -->
<g id="node1" class="node">
<title>OrganizationModule</title>
<polygon fill="#8dd3c7" stroke="black" points="1061.13,-122 1058.13,-126 1037.13,-126 1034.13,-122 928.87,-122 928.87,-86 1061.13,-86 1061.13,-122"/>
<text text-anchor="middle" x="995" y="-99.8" font-family="Times,serif" font-size="14.00">OrganizationModule</text>
</g>
<!-- AuthModule -->
<g id="node4" class="node">
<title>AuthModule</title>
<polygon fill="#8dd3c7" stroke="black" points="645.55,-187 642.55,-191 621.55,-191 618.55,-187 558.45,-187 558.45,-151 645.55,-151 645.55,-187"/>
<text text-anchor="middle" x="602" y="-164.8" font-family="Times,serif" font-size="14.00">AuthModule</text>
</g>
<!-- OrganizationModule&#45;&gt;AuthModule -->
<g id="edge1" class="edge">
<title>OrganizationModule&#45;&gt;AuthModule</title>
<path fill="none" stroke="black" d="M995,-122.29C995,-144.21 995,-178 995,-178 995,-178 655.56,-178 655.56,-178"/>
<polygon fill="black" stroke="black" points="655.56,-174.5 645.56,-178 655.56,-181.5 655.56,-174.5"/>
</g>
<!-- PermissionModule -->
<g id="node2" class="node">
<title>PermissionModule</title>
<polygon fill="#8dd3c7" stroke="black" points="910.77,-122 907.77,-126 886.77,-126 883.77,-122 789.23,-122 789.23,-86 910.77,-86 910.77,-122"/>
<text text-anchor="middle" x="850" y="-99.8" font-family="Times,serif" font-size="14.00">PermissionModule</text>
</g>
<!-- PermissionModule&#45;&gt;AuthModule -->
<g id="edge2" class="edge">
<title>PermissionModule&#45;&gt;AuthModule</title>
<path fill="none" stroke="black" d="M850,-122.11C850,-141.34 850,-169 850,-169 850,-169 655.77,-169 655.77,-169"/>
<polygon fill="black" stroke="black" points="655.77,-165.5 645.77,-169 655.77,-172.5 655.77,-165.5"/>
</g>
<!-- UserModule -->
<g id="node3" class="node">
<title>UserModule</title>
<polygon fill="#8dd3c7" stroke="black" points="770.98,-122 767.98,-126 746.98,-126 743.98,-122 685.02,-122 685.02,-86 770.98,-86 770.98,-122"/>
<text text-anchor="middle" x="728" y="-99.8" font-family="Times,serif" font-size="14.00">UserModule</text>
</g>
<!-- UserModule&#45;&gt;AuthModule -->
<g id="edge3" class="edge">
<title>UserModule&#45;&gt;AuthModule</title>
<path fill="none" stroke="black" d="M728,-122.03C728,-138.4 728,-160 728,-160 728,-160 655.72,-160 655.72,-160"/>
<polygon fill="black" stroke="black" points="655.72,-156.5 645.72,-160 655.72,-163.5 655.72,-156.5"/>
</g>
<!-- AuthService  -->
<g id="node5" class="node">
<title>AuthService </title>
<polygon fill="#fb8072" stroke="black" points="646.98,-252 557.02,-252 557.02,-216 646.98,-216 646.98,-252"/>
<text text-anchor="middle" x="602" y="-229.8" font-family="Times,serif" font-size="14.00">AuthService </text>
</g>
<!-- AuthModule&#45;&gt;AuthService  -->
<g id="edge4" class="edge">
<title>AuthModule&#45;&gt;AuthService </title>
<path fill="none" stroke="black" stroke-dasharray="5,2" d="M602,-187.11C602,-187.11 602,-205.99 602,-205.99"/>
<polygon fill="black" stroke="black" points="598.5,-205.99 602,-215.99 605.5,-205.99 598.5,-205.99"/>
</g>
<!-- AuthService -->
<g id="node6" class="node">
<title>AuthService</title>
<ellipse fill="#fdb462" stroke="black" cx="602" cy="-104" rx="59.11" ry="18"/>
<text text-anchor="middle" x="602" y="-99.8" font-family="Times,serif" font-size="14.00">AuthService</text>
</g>
<!-- AuthService&#45;&gt;AuthModule -->
<g id="edge5" class="edge">
<title>AuthService&#45;&gt;AuthModule</title>
<path fill="none" stroke="black" d="M602,-122.11C602,-122.11 602,-140.99 602,-140.99"/>
<polygon fill="black" stroke="black" points="598.5,-140.99 602,-150.99 605.5,-140.99 598.5,-140.99"/>
</g>
<!-- ClientCredentialsStrategy -->
<g id="node7" class="node">
<title>ClientCredentialsStrategy</title>
<ellipse fill="#fdb462" stroke="black" cx="414" cy="-104" rx="110.61" ry="18"/>
<text text-anchor="middle" x="414" y="-99.8" font-family="Times,serif" font-size="14.00">ClientCredentialsStrategy</text>
</g>
<!-- ClientCredentialsStrategy&#45;&gt;AuthModule -->
<g id="edge6" class="edge">
<title>ClientCredentialsStrategy&#45;&gt;AuthModule</title>
<path fill="none" stroke="black" d="M414,-122.03C414,-138.4 414,-160 414,-160 414,-160 548.4,-160 548.4,-160"/>
<polygon fill="black" stroke="black" points="548.4,-163.5 558.4,-160 548.4,-156.5 548.4,-163.5"/>
</g>
<!-- JwtStrategy -->
<g id="node8" class="node">
<title>JwtStrategy</title>
<ellipse fill="#fdb462" stroke="black" cx="229" cy="-104" rx="56.76" ry="18"/>
<text text-anchor="middle" x="229" y="-99.8" font-family="Times,serif" font-size="14.00">JwtStrategy</text>
</g>
<!-- JwtStrategy&#45;&gt;AuthModule -->
<g id="edge7" class="edge">
<title>JwtStrategy&#45;&gt;AuthModule</title>
<path fill="none" stroke="black" d="M229,-122.11C229,-141.34 229,-169 229,-169 229,-169 548.12,-169 548.12,-169"/>
<polygon fill="black" stroke="black" points="548.12,-172.5 558.12,-169 548.12,-165.5 548.12,-172.5"/>
</g>
<!-- LocalStrategy -->
<g id="node9" class="node">
<title>LocalStrategy</title>
<ellipse fill="#fdb462" stroke="black" cx="89" cy="-104" rx="65.41" ry="18"/>
<text text-anchor="middle" x="89" y="-99.8" font-family="Times,serif" font-size="14.00">LocalStrategy</text>
</g>
<!-- LocalStrategy&#45;&gt;AuthModule -->
<g id="edge8" class="edge">
<title>LocalStrategy&#45;&gt;AuthModule</title>
<path fill="none" stroke="black" d="M89,-122.29C89,-144.21 89,-178 89,-178 89,-178 548.26,-178 548.26,-178"/>
<polygon fill="black" stroke="black" points="548.26,-181.5 558.26,-178 548.26,-174.5 548.26,-181.5"/>
</g>
</g>
</svg>
