<?xml version="1.0" encoding="UTF-8" standalone="no"?>
<!DOCTYPE svg PUBLIC "-//W3C//DTD SVG 1.1//EN"
 "http://www.w3.org/Graphics/SVG/1.1/DTD/svg11.dtd">
<!-- Generated by graphviz version 2.47.0 (20210316.0004)
 -->
<!-- Title: dependencies Pages: 1 -->
<svg width="1200pt" height="284pt"
 viewBox="0.00 0.00 1200.00 284.00" xmlns="http://www.w3.org/2000/svg" xmlns:xlink="http://www.w3.org/1999/xlink">
<g id="graph0" class="graph" transform="scale(1 1) rotate(0) translate(4 280)">
<title>dependencies</title>
<polygon fill="white" stroke="transparent" points="-4,4 -4,-280 1196,-280 1196,4 -4,4"/>
<text text-anchor="start" x="575.01" y="-42.4" font-family="Times-12" font-weight="bold" font-size="14.00">Legend</text>
<polygon fill="#ffffb3" stroke="transparent" points="362,-10 362,-30 382,-30 382,-10 362,-10"/>
<text text-anchor="start" x="385.63" y="-15.4" font-family="Times-12" font-size="14.00"> &#160;Declarations</text>
<polygon fill="#8dd3c7" stroke="transparent" points="475,-10 475,-30 495,-30 495,-10 475,-10"/>
<text text-anchor="start" x="498.73" y="-15.4" font-family="Times-12" font-size="14.00"> &#160;Module</text>
<polygon fill="#80b1d3" stroke="transparent" points="561,-10 561,-30 581,-30 581,-10 561,-10"/>
<text text-anchor="start" x="584.78" y="-15.4" font-family="Times-12" font-size="14.00"> &#160;Bootstrap</text>
<polygon fill="#fdb462" stroke="transparent" points="658,-10 658,-30 678,-30 678,-10 658,-10"/>
<text text-anchor="start" x="681.67" y="-15.4" font-family="Times-12" font-size="14.00"> &#160;Providers</text>
<polygon fill="#fb8072" stroke="transparent" points="754,-10 754,-30 774,-30 774,-10 754,-10"/>
<text text-anchor="start" x="777.73" y="-15.4" font-family="Times-12" font-size="14.00"> &#160;Exports</text>
<g id="clust1" class="cluster">
<title>cluster_IssuerModule</title>
<polygon fill="none" stroke="black" stroke-dasharray="1,5" points="8,-70 8,-268 1184,-268 1184,-70 8,-70"/>
</g>
<g id="clust4" class="cluster">
<title>cluster_IssuerModule_exports</title>
<polygon fill="none" stroke="black" points="617,-208 617,-260 727,-260 727,-208 617,-208"/>
</g>
<g id="clust3" class="cluster">
<title>cluster_IssuerModule_imports</title>
<polygon fill="none" stroke="black" points="486,-78 486,-130 1176,-130 1176,-78 486,-78"/>
</g>
<g id="clust6" class="cluster">
<title>cluster_IssuerModule_providers</title>
<polygon fill="none" stroke="black" points="16,-78 16,-130 478,-130 478,-78 16,-78"/>
</g>
<!-- CertificateLogModule -->
<g id="node1" class="node">
<title>CertificateLogModule</title>
<polygon fill="#8dd3c7" stroke="black" points="1167.68,-122 1164.68,-126 1143.68,-126 1140.68,-122 1026.32,-122 1026.32,-86 1167.68,-86 1167.68,-122"/>
<text text-anchor="middle" x="1097" y="-99.8" font-family="Times,serif" font-size="14.00">CertificateLogModule</text>
</g>
<!-- IssuerModule -->
<g id="node6" class="node">
<title>IssuerModule</title>
<polygon fill="#8dd3c7" stroke="black" points="718.47,-187 715.47,-191 694.47,-191 691.47,-187 625.53,-187 625.53,-151 718.47,-151 718.47,-187"/>
<text text-anchor="middle" x="672" y="-164.8" font-family="Times,serif" font-size="14.00">IssuerModule</text>
</g>
<!-- CertificateLogModule&#45;&gt;IssuerModule -->
<g id="edge1" class="edge">
<title>CertificateLogModule&#45;&gt;IssuerModule</title>
<path fill="none" stroke="black" d="M1097,-122.29C1097,-144.21 1097,-178 1097,-178 1097,-178 728.7,-178 728.7,-178"/>
<polygon fill="black" stroke="black" points="728.7,-174.5 718.7,-178 728.7,-181.5 728.7,-174.5"/>
</g>
<!-- DeviceGroupModule -->
<g id="node2" class="node">
<title>DeviceGroupModule</title>
<polygon fill="#8dd3c7" stroke="black" points="1008.46,-122 1005.46,-126 984.46,-126 981.46,-122 873.54,-122 873.54,-86 1008.46,-86 1008.46,-122"/>
<text text-anchor="middle" x="941" y="-99.8" font-family="Times,serif" font-size="14.00">DeviceGroupModule</text>
</g>
<!-- DeviceGroupModule&#45;&gt;IssuerModule -->
<g id="edge2" class="edge">
<title>DeviceGroupModule&#45;&gt;IssuerModule</title>
<path fill="none" stroke="black" d="M941,-122.11C941,-141.34 941,-169 941,-169 941,-169 728.55,-169 728.55,-169"/>
<polygon fill="black" stroke="black" points="728.55,-165.5 718.55,-169 728.55,-172.5 728.55,-165.5"/>
</g>
<!-- DeviceModule -->
<g id="node3" class="node">
<title>DeviceModule</title>
<polygon fill="#8dd3c7" stroke="black" points="855.69,-122 852.69,-126 831.69,-126 828.69,-122 756.31,-122 756.31,-86 855.69,-86 855.69,-122"/>
<text text-anchor="middle" x="806" y="-99.8" font-family="Times,serif" font-size="14.00">DeviceModule</text>
</g>
<!-- DeviceModule&#45;&gt;IssuerModule -->
<g id="edge3" class="edge">
<title>DeviceModule&#45;&gt;IssuerModule</title>
<path fill="none" stroke="black" d="M806,-122.03C806,-138.4 806,-160 806,-160 806,-160 728.49,-160 728.49,-160"/>
<polygon fill="black" stroke="black" points="728.49,-156.5 718.49,-160 728.49,-163.5 728.49,-156.5"/>
</g>
<!-- OrganizationModule -->
<g id="node4" class="node">
<title>OrganizationModule</title>
<polygon fill="#8dd3c7" stroke="black" points="738.13,-122 735.13,-126 714.13,-126 711.13,-122 605.87,-122 605.87,-86 738.13,-86 738.13,-122"/>
<text text-anchor="middle" x="672" y="-99.8" font-family="Times,serif" font-size="14.00">OrganizationModule</text>
</g>
<!-- OrganizationModule&#45;&gt;IssuerModule -->
<g id="edge4" class="edge">
<title>OrganizationModule&#45;&gt;IssuerModule</title>
<path fill="none" stroke="black" d="M672,-122.11C672,-122.11 672,-140.99 672,-140.99"/>
<polygon fill="black" stroke="black" points="668.5,-140.99 672,-150.99 675.5,-140.99 668.5,-140.99"/>
</g>
<!-- ReadsModule -->
<g id="node5" class="node">
<title>ReadsModule</title>
<polygon fill="#8dd3c7" stroke="black" points="587.76,-122 584.76,-126 563.76,-126 560.76,-122 494.24,-122 494.24,-86 587.76,-86 587.76,-122"/>
<text text-anchor="middle" x="541" y="-99.8" font-family="Times,serif" font-size="14.00">ReadsModule</text>
</g>
<!-- ReadsModule&#45;&gt;IssuerModule -->
<g id="edge5" class="edge">
<title>ReadsModule&#45;&gt;IssuerModule</title>
<path fill="none" stroke="black" d="M541,-122.03C541,-138.4 541,-160 541,-160 541,-160 615.45,-160 615.45,-160"/>
<polygon fill="black" stroke="black" points="615.45,-163.5 625.45,-160 615.45,-156.5 615.45,-163.5"/>
</g>
<!-- IssuerService  -->
<g id="node7" class="node">
<title>IssuerService </title>
<polygon fill="#fb8072" stroke="black" points="719.4,-252 624.6,-252 624.6,-216 719.4,-216 719.4,-252"/>
<text text-anchor="middle" x="672" y="-229.8" font-family="Times,serif" font-size="14.00">IssuerService </text>
</g>
<!-- IssuerModule&#45;&gt;IssuerService  -->
<g id="edge6" class="edge">
<title>IssuerModule&#45;&gt;IssuerService </title>
<path fill="none" stroke="black" stroke-dasharray="5,2" d="M672,-187.11C672,-187.11 672,-205.99 672,-205.99"/>
<polygon fill="black" stroke="black" points="668.5,-205.99 672,-215.99 675.5,-205.99 668.5,-205.99"/>
</g>
<!-- IssuerService -->
<g id="node8" class="node">
<title>IssuerService</title>
<ellipse fill="#fdb462" stroke="black" cx="407" cy="-104" rx="63.1" ry="18"/>
<text text-anchor="middle" x="407" y="-99.8" font-family="Times,serif" font-size="14.00">IssuerService</text>
</g>
<!-- IssuerService&#45;&gt;IssuerModule -->
<g id="edge7" class="edge">
<title>IssuerService&#45;&gt;IssuerModule</title>
<path fill="none" stroke="black" d="M407,-122.11C407,-141.34 407,-169 407,-169 407,-169 615.23,-169 615.23,-169"/>
<polygon fill="black" stroke="black" points="615.23,-172.5 625.23,-169 615.23,-165.5 615.23,-172.5"/>
</g>
<!-- SynchronizeBlockchainTaskService -->
<g id="node9" class="node">
<title>SynchronizeBlockchainTaskService</title>
<ellipse fill="#fdb462" stroke="black" cx="175" cy="-104" rx="151.03" ry="18"/>
<text text-anchor="middle" x="175" y="-99.8" font-family="Times,serif" font-size="14.00">SynchronizeBlockchainTaskService</text>
</g>
<!-- SynchronizeBlockchainTaskService&#45;&gt;IssuerModule -->
<g id="edge8" class="edge">
<title>SynchronizeBlockchainTaskService&#45;&gt;IssuerModule</title>
<path fill="none" stroke="black" d="M175,-122.29C175,-144.21 175,-178 175,-178 175,-178 615.24,-178 615.24,-178"/>
<polygon fill="black" stroke="black" points="615.24,-181.5 625.24,-178 615.24,-174.5 615.24,-181.5"/>
</g>
</g>
</svg>
