<?xml version="1.0" encoding="UTF-8" standalone="no"?>
<!DOCTYPE svg PUBLIC "-//W3C//DTD SVG 1.1//EN"
 "http://www.w3.org/Graphics/SVG/1.1/DTD/svg11.dtd">
<!-- Generated by graphviz version 2.47.0 (20210316.0004)
 -->
<!-- Title: dependencies Pages: 1 -->
<svg width="1304pt" height="284pt"
 viewBox="0.00 0.00 1304.00 284.00" xmlns="http://www.w3.org/2000/svg" xmlns:xlink="http://www.w3.org/1999/xlink">
<g id="graph0" class="graph" transform="scale(1 1) rotate(0) translate(4 280)">
<title>dependencies</title>
<polygon fill="white" stroke="transparent" points="-4,4 -4,-280 1300,-280 1300,4 -4,4"/>
<text text-anchor="start" x="627.01" y="-42.4" font-family="Times-12" font-weight="bold" font-size="14.00">Legend</text>
<polygon fill="#ffffb3" stroke="transparent" points="414,-10 414,-30 434,-30 434,-10 414,-10"/>
<text text-anchor="start" x="437.63" y="-15.4" font-family="Times-12" font-size="14.00"> &#160;Declarations</text>
<polygon fill="#8dd3c7" stroke="transparent" points="527,-10 527,-30 547,-30 547,-10 527,-10"/>
<text text-anchor="start" x="550.73" y="-15.4" font-family="Times-12" font-size="14.00"> &#160;Module</text>
<polygon fill="#80b1d3" stroke="transparent" points="613,-10 613,-30 633,-30 633,-10 613,-10"/>
<text text-anchor="start" x="636.78" y="-15.4" font-family="Times-12" font-size="14.00"> &#160;Bootstrap</text>
<polygon fill="#fdb462" stroke="transparent" points="710,-10 710,-30 730,-30 730,-10 710,-10"/>
<text text-anchor="start" x="733.67" y="-15.4" font-family="Times-12" font-size="14.00"> &#160;Providers</text>
<polygon fill="#fb8072" stroke="transparent" points="806,-10 806,-30 826,-30 826,-10 806,-10"/>
<text text-anchor="start" x="829.73" y="-15.4" font-family="Times-12" font-size="14.00"> &#160;Exports</text>
<g id="clust1" class="cluster">
<title>cluster_IssuerModule</title>
<polygon fill="none" stroke="black" stroke-dasharray="1,5" points="8,-70 8,-268 1288,-268 1288,-70 8,-70"/>
</g>
<g id="clust4" class="cluster">
<title>cluster_IssuerModule_exports</title>
<polygon fill="none" stroke="black" points="655,-208 655,-260 765,-260 765,-208 655,-208"/>
</g>
<g id="clust3" class="cluster">
<title>cluster_IssuerModule_imports</title>
<polygon fill="none" stroke="black" points="486,-78 486,-130 1280,-130 1280,-78 486,-78"/>
</g>
<g id="clust6" class="cluster">
<title>cluster_IssuerModule_providers</title>
<polygon fill="none" stroke="black" points="16,-78 16,-130 478,-130 478,-78 16,-78"/>
</g>
<!-- CertificateLogModule -->
<g id="node1" class="node">
<title>CertificateLogModule</title>
<polygon fill="#8dd3c7" stroke="black" points="1271.68,-122 1268.68,-126 1247.68,-126 1244.68,-122 1130.32,-122 1130.32,-86 1271.68,-86 1271.68,-122"/>
<text text-anchor="middle" x="1201" y="-99.8" font-family="Times,serif" font-size="14.00">CertificateLogModule</text>
</g>
<!-- IssuerModule -->
<g id="node7" class="node">
<title>IssuerModule</title>
<polygon fill="#8dd3c7" stroke="black" points="756.47,-187 753.47,-191 732.47,-191 729.47,-187 663.53,-187 663.53,-151 756.47,-151 756.47,-187"/>
<text text-anchor="middle" x="710" y="-164.8" font-family="Times,serif" font-size="14.00">IssuerModule</text>
</g>
<!-- CertificateLogModule&#45;&gt;IssuerModule -->
<g id="edge1" class="edge">
<title>CertificateLogModule&#45;&gt;IssuerModule</title>
<path fill="none" stroke="black" d="M1201,-122.29C1201,-144.21 1201,-178 1201,-178 1201,-178 766.63,-178 766.63,-178"/>
<polygon fill="black" stroke="black" points="766.63,-174.5 756.63,-178 766.63,-181.5 766.63,-174.5"/>
</g>
<!-- DeviceGroupModule -->
<g id="node2" class="node">
<title>DeviceGroupModule</title>
<polygon fill="#8dd3c7" stroke="black" points="1112.46,-122 1109.46,-126 1088.46,-126 1085.46,-122 977.54,-122 977.54,-86 1112.46,-86 1112.46,-122"/>
<text text-anchor="middle" x="1045" y="-99.8" font-family="Times,serif" font-size="14.00">DeviceGroupModule</text>
</g>
<!-- DeviceGroupModule&#45;&gt;IssuerModule -->
<g id="edge2" class="edge">
<title>DeviceGroupModule&#45;&gt;IssuerModule</title>
<path fill="none" stroke="black" d="M1045,-122.11C1045,-141.34 1045,-169 1045,-169 1045,-169 766.58,-169 766.58,-169"/>
<polygon fill="black" stroke="black" points="766.58,-165.5 756.58,-169 766.58,-172.5 766.58,-165.5"/>
</g>
<!-- DeviceModule -->
<g id="node3" class="node">
<title>DeviceModule</title>
<polygon fill="#8dd3c7" stroke="black" points="959.69,-122 956.69,-126 935.69,-126 932.69,-122 860.31,-122 860.31,-86 959.69,-86 959.69,-122"/>
<text text-anchor="middle" x="910" y="-99.8" font-family="Times,serif" font-size="14.00">DeviceModule</text>
</g>
<!-- DeviceModule&#45;&gt;IssuerModule -->
<g id="edge3" class="edge">
<title>DeviceModule&#45;&gt;IssuerModule</title>
<path fill="none" stroke="black" d="M910,-122.03C910,-138.4 910,-160 910,-160 910,-160 766.64,-160 766.64,-160"/>
<polygon fill="black" stroke="black" points="766.64,-156.5 756.64,-160 766.64,-163.5 766.64,-156.5"/>
</g>
<!-- OrganizationModule -->
<g id="node4" class="node">
<title>OrganizationModule</title>
<polygon fill="#8dd3c7" stroke="black" points="842.13,-122 839.13,-126 818.13,-126 815.13,-122 709.87,-122 709.87,-86 842.13,-86 842.13,-122"/>
<text text-anchor="middle" x="776" y="-99.8" font-family="Times,serif" font-size="14.00">OrganizationModule</text>
</g>
<!-- OrganizationModule&#45;&gt;IssuerModule -->
<g id="edge4" class="edge">
<title>OrganizationModule&#45;&gt;IssuerModule</title>
<path fill="none" stroke="black" d="M733.09,-122.11C733.09,-122.11 733.09,-140.99 733.09,-140.99"/>
<polygon fill="black" stroke="black" points="729.59,-140.99 733.09,-150.99 736.59,-140.99 729.59,-140.99"/>
</g>
<!-- ReadsModule -->
<g id="node5" class="node">
<title>ReadsModule</title>
<polygon fill="#8dd3c7" stroke="black" points="691.76,-122 688.76,-126 667.76,-126 664.76,-122 598.24,-122 598.24,-86 691.76,-86 691.76,-122"/>
<text text-anchor="middle" x="645" y="-99.8" font-family="Times,serif" font-size="14.00">ReadsModule</text>
</g>
<!-- ReadsModule&#45;&gt;IssuerModule -->
<g id="edge5" class="edge">
<title>ReadsModule&#45;&gt;IssuerModule</title>
<path fill="none" stroke="black" d="M677.7,-122.11C677.7,-122.11 677.7,-140.99 677.7,-140.99"/>
<polygon fill="black" stroke="black" points="674.2,-140.99 677.7,-150.99 681.2,-140.99 674.2,-140.99"/>
</g>
<!-- UserModule -->
<g id="node6" class="node">
<title>UserModule</title>
<polygon fill="#8dd3c7" stroke="black" points="579.98,-122 576.98,-126 555.98,-126 552.98,-122 494.02,-122 494.02,-86 579.98,-86 579.98,-122"/>
<text text-anchor="middle" x="537" y="-99.8" font-family="Times,serif" font-size="14.00">UserModule</text>
</g>
<!-- UserModule&#45;&gt;IssuerModule -->
<g id="edge6" class="edge">
<title>UserModule&#45;&gt;IssuerModule</title>
<path fill="none" stroke="black" d="M537,-122.03C537,-138.4 537,-160 537,-160 537,-160 653.18,-160 653.18,-160"/>
<polygon fill="black" stroke="black" points="653.18,-163.5 663.18,-160 653.18,-156.5 653.18,-163.5"/>
</g>
<!-- IssuerService  -->
<g id="node8" class="node">
<title>IssuerService </title>
<polygon fill="#fb8072" stroke="black" points="757.4,-252 662.6,-252 662.6,-216 757.4,-216 757.4,-252"/>
<text text-anchor="middle" x="710" y="-229.8" font-family="Times,serif" font-size="14.00">IssuerService </text>
</g>
<!-- IssuerModule&#45;&gt;IssuerService  -->
<g id="edge7" class="edge">
<title>IssuerModule&#45;&gt;IssuerService </title>
<path fill="none" stroke="black" stroke-dasharray="5,2" d="M710,-187.11C710,-187.11 710,-205.99 710,-205.99"/>
<polygon fill="black" stroke="black" points="706.5,-205.99 710,-215.99 713.5,-205.99 706.5,-205.99"/>
</g>
<!-- IssuerService -->
<g id="node9" class="node">
<title>IssuerService</title>
<ellipse fill="#fdb462" stroke="black" cx="407" cy="-104" rx="63.1" ry="18"/>
<text text-anchor="middle" x="407" y="-99.8" font-family="Times,serif" font-size="14.00">IssuerService</text>
</g>
<!-- IssuerService&#45;&gt;IssuerModule -->
<g id="edge8" class="edge">
<title>IssuerService&#45;&gt;IssuerModule</title>
<path fill="none" stroke="black" d="M407,-122.11C407,-141.34 407,-169 407,-169 407,-169 653.32,-169 653.32,-169"/>
<polygon fill="black" stroke="black" points="653.32,-172.5 663.32,-169 653.32,-165.5 653.32,-172.5"/>
</g>
<!-- SynchronizeBlockchainTaskService -->
<g id="node10" class="node">
<title>SynchronizeBlockchainTaskService</title>
<ellipse fill="#fdb462" stroke="black" cx="175" cy="-104" rx="151.03" ry="18"/>
<text text-anchor="middle" x="175" y="-99.8" font-family="Times,serif" font-size="14.00">SynchronizeBlockchainTaskService</text>
</g>
<!-- SynchronizeBlockchainTaskService&#45;&gt;IssuerModule -->
<g id="edge9" class="edge">
<title>SynchronizeBlockchainTaskService&#45;&gt;IssuerModule</title>
<path fill="none" stroke="black" d="M175,-122.29C175,-144.21 175,-178 175,-178 175,-178 653.46,-178 653.46,-178"/>
<polygon fill="black" stroke="black" points="653.46,-181.5 663.46,-178 653.46,-174.5 653.46,-181.5"/>
</g>
</g>
</svg>
