<?xml version="1.0" encoding="UTF-8" standalone="no"?>
<!DOCTYPE svg PUBLIC "-//W3C//DTD SVG 1.1//EN"
 "http://www.w3.org/Graphics/SVG/1.1/DTD/svg11.dtd">
<!-- Generated by graphviz version 2.47.0 (20210316.0004)
 -->
<!-- Title: dependencies Pages: 1 -->
<svg width="758pt" height="284pt"
 viewBox="0.00 0.00 758.00 284.00" xmlns="http://www.w3.org/2000/svg" xmlns:xlink="http://www.w3.org/1999/xlink">
<g id="graph0" class="graph" transform="scale(1 1) rotate(0) translate(4 280)">
<title>dependencies</title>
<polygon fill="white" stroke="transparent" points="-4,4 -4,-280 754,-280 754,4 -4,4"/>
<text text-anchor="start" x="354.01" y="-42.4" font-family="Times-12" font-weight="bold" font-size="14.00">Legend</text>
<polygon fill="#ffffb3" stroke="transparent" points="141,-10 141,-30 161,-30 161,-10 141,-10"/>
<text text-anchor="start" x="164.63" y="-15.4" font-family="Times-12" font-size="14.00"> &#160;Declarations</text>
<polygon fill="#8dd3c7" stroke="transparent" points="254,-10 254,-30 274,-30 274,-10 254,-10"/>
<text text-anchor="start" x="277.73" y="-15.4" font-family="Times-12" font-size="14.00"> &#160;Module</text>
<polygon fill="#80b1d3" stroke="transparent" points="340,-10 340,-30 360,-30 360,-10 340,-10"/>
<text text-anchor="start" x="363.78" y="-15.4" font-family="Times-12" font-size="14.00"> &#160;Bootstrap</text>
<polygon fill="#fdb462" stroke="transparent" points="437,-10 437,-30 457,-30 457,-10 437,-10"/>
<text text-anchor="start" x="460.67" y="-15.4" font-family="Times-12" font-size="14.00"> &#160;Providers</text>
<polygon fill="#fb8072" stroke="transparent" points="533,-10 533,-30 553,-30 553,-10 533,-10"/>
<text text-anchor="start" x="556.73" y="-15.4" font-family="Times-12" font-size="14.00"> &#160;Exports</text>
<g id="clust1" class="cluster">
<title>cluster_IntegratorsModule</title>
<polygon fill="none" stroke="black" stroke-dasharray="1,5" points="8,-70 8,-268 742,-268 742,-70 8,-70"/>
</g>
<g id="clust6" class="cluster">
<title>cluster_IntegratorsModule_providers</title>
<polygon fill="none" stroke="black" points="554,-78 554,-130 734,-130 734,-78 554,-78"/>
</g>
<g id="clust4" class="cluster">
<title>cluster_IntegratorsModule_exports</title>
<polygon fill="none" stroke="black" points="267,-208 267,-260 405,-260 405,-208 267,-208"/>
</g>
<g id="clust3" class="cluster">
<title>cluster_IntegratorsModule_imports</title>
<polygon fill="none" stroke="black" points="16,-78 16,-130 546,-130 546,-78 16,-78"/>
</g>
<!-- DeviceGroupModule -->
<g id="node1" class="node">
<title>DeviceGroupModule</title>
<polygon fill="#8dd3c7" stroke="black" points="538.46,-122 535.46,-126 514.46,-126 511.46,-122 403.54,-122 403.54,-86 538.46,-86 538.46,-122"/>
<text text-anchor="middle" x="471" y="-99.8" font-family="Times,serif" font-size="14.00">DeviceGroupModule</text>
</g>
<!-- IntegratorsModule -->
<g id="node5" class="node">
<title>IntegratorsModule</title>
<polygon fill="#8dd3c7" stroke="black" points="396.19,-187 393.19,-191 372.19,-191 369.19,-187 275.81,-187 275.81,-151 396.19,-151 396.19,-187"/>
<text text-anchor="middle" x="336" y="-164.8" font-family="Times,serif" font-size="14.00">IntegratorsModule</text>
</g>
<!-- DeviceGroupModule&#45;&gt;IntegratorsModule -->
<g id="edge1" class="edge">
<title>DeviceGroupModule&#45;&gt;IntegratorsModule</title>
<path fill="none" stroke="black" d="M403.37,-104C395.85,-104 390.84,-104 390.84,-104 390.84,-104 390.84,-140.89 390.84,-140.89"/>
<polygon fill="black" stroke="black" points="387.34,-140.89 390.84,-150.89 394.34,-140.89 387.34,-140.89"/>
</g>
<!-- DeviceModule -->
<g id="node2" class="node">
<title>DeviceModule</title>
<polygon fill="#8dd3c7" stroke="black" points="385.69,-122 382.69,-126 361.69,-126 358.69,-122 286.31,-122 286.31,-86 385.69,-86 385.69,-122"/>
<text text-anchor="middle" x="336" y="-99.8" font-family="Times,serif" font-size="14.00">DeviceModule</text>
</g>
<!-- DeviceModule&#45;&gt;IntegratorsModule -->
<g id="edge2" class="edge">
<title>DeviceModule&#45;&gt;IntegratorsModule</title>
<path fill="none" stroke="black" d="M336,-122.11C336,-122.11 336,-140.99 336,-140.99"/>
<polygon fill="black" stroke="black" points="332.5,-140.99 336,-150.99 339.5,-140.99 332.5,-140.99"/>
</g>
<!-- OrganizationModule -->
<g id="node3" class="node">
<title>OrganizationModule</title>
<polygon fill="#8dd3c7" stroke="black" points="268.13,-122 265.13,-126 244.13,-126 241.13,-122 135.87,-122 135.87,-86 268.13,-86 268.13,-122"/>
<text text-anchor="middle" x="202" y="-99.8" font-family="Times,serif" font-size="14.00">OrganizationModule</text>
</g>
<!-- OrganizationModule&#45;&gt;IntegratorsModule -->
<g id="edge3" class="edge">
<title>OrganizationModule&#45;&gt;IntegratorsModule</title>
<path fill="none" stroke="black" d="M268.44,-104C276.05,-104 281.16,-104 281.16,-104 281.16,-104 281.16,-140.89 281.16,-140.89"/>
<polygon fill="black" stroke="black" points="277.66,-140.89 281.16,-150.89 284.66,-140.89 277.66,-140.89"/>
</g>
<!-- ReadsModule -->
<g id="node4" class="node">
<title>ReadsModule</title>
<polygon fill="#8dd3c7" stroke="black" points="117.76,-122 114.76,-126 93.76,-126 90.76,-122 24.24,-122 24.24,-86 117.76,-86 117.76,-122"/>
<text text-anchor="middle" x="71" y="-99.8" font-family="Times,serif" font-size="14.00">ReadsModule</text>
</g>
<!-- ReadsModule&#45;&gt;IntegratorsModule -->
<g id="edge4" class="edge">
<title>ReadsModule&#45;&gt;IntegratorsModule</title>
<path fill="none" stroke="black" d="M71,-122.11C71,-141.34 71,-169 71,-169 71,-169 265.87,-169 265.87,-169"/>
<polygon fill="black" stroke="black" points="265.87,-172.5 275.87,-169 265.87,-165.5 265.87,-172.5"/>
</g>
<!-- IntegratorsService  -->
<g id="node6" class="node">
<title>IntegratorsService </title>
<polygon fill="#fb8072" stroke="black" points="397.11,-252 274.89,-252 274.89,-216 397.11,-216 397.11,-252"/>
<text text-anchor="middle" x="336" y="-229.8" font-family="Times,serif" font-size="14.00">IntegratorsService </text>
</g>
<!-- IntegratorsModule&#45;&gt;IntegratorsService  -->
<g id="edge5" class="edge">
<title>IntegratorsModule&#45;&gt;IntegratorsService </title>
<path fill="none" stroke="black" stroke-dasharray="5,2" d="M336,-187.11C336,-187.11 336,-205.99 336,-205.99"/>
<polygon fill="black" stroke="black" points="332.5,-205.99 336,-215.99 339.5,-205.99 332.5,-205.99"/>
</g>
<!-- IntegratorsService -->
<g id="node7" class="node">
<title>IntegratorsService</title>
<ellipse fill="#fdb462" stroke="black" cx="644" cy="-104" rx="81.64" ry="18"/>
<text text-anchor="middle" x="644" y="-99.8" font-family="Times,serif" font-size="14.00">IntegratorsService</text>
</g>
<!-- IntegratorsService&#45;&gt;IntegratorsModule -->
<g id="edge6" class="edge">
<title>IntegratorsService&#45;&gt;IntegratorsModule</title>
<path fill="none" stroke="black" d="M644,-122.11C644,-141.34 644,-169 644,-169 644,-169 406.12,-169 406.12,-169"/>
<polygon fill="black" stroke="black" points="406.12,-165.5 396.12,-169 406.12,-172.5 406.12,-165.5"/>
</g>
</g>
</svg>
