<?xml version="1.0" encoding="UTF-8" standalone="no"?>
<!DOCTYPE svg PUBLIC "-//W3C//DTD SVG 1.1//EN"
 "http://www.w3.org/Graphics/SVG/1.1/DTD/svg11.dtd">
<!-- Generated by graphviz version 2.47.0 (20210316.0004)
 -->
<!-- Title: dependencies Pages: 1 -->
<svg width="758pt" height="284pt"
 viewBox="0.00 0.00 758.00 284.00" xmlns="http://www.w3.org/2000/svg" xmlns:xlink="http://www.w3.org/1999/xlink">
<g id="graph0" class="graph" transform="scale(1 1) rotate(0) translate(4 280)">
<title>dependencies</title>
<polygon fill="white" stroke="transparent" points="-4,4 -4,-280 754,-280 754,4 -4,4"/>
<text text-anchor="start" x="354.01" y="-42.4" font-family="Times-12" font-weight="bold" font-size="14.00">Legend</text>
<polygon fill="#ffffb3" stroke="transparent" points="141,-10 141,-30 161,-30 161,-10 141,-10"/>
<text text-anchor="start" x="164.63" y="-15.4" font-family="Times-12" font-size="14.00"> &#160;Declarations</text>
<polygon fill="#8dd3c7" stroke="transparent" points="254,-10 254,-30 274,-30 274,-10 254,-10"/>
<text text-anchor="start" x="277.73" y="-15.4" font-family="Times-12" font-size="14.00"> &#160;Module</text>
<polygon fill="#80b1d3" stroke="transparent" points="340,-10 340,-30 360,-30 360,-10 340,-10"/>
<text text-anchor="start" x="363.78" y="-15.4" font-family="Times-12" font-size="14.00"> &#160;Bootstrap</text>
<polygon fill="#fdb462" stroke="transparent" points="437,-10 437,-30 457,-30 457,-10 437,-10"/>
<text text-anchor="start" x="460.67" y="-15.4" font-family="Times-12" font-size="14.00"> &#160;Providers</text>
<polygon fill="#fb8072" stroke="transparent" points="533,-10 533,-30 553,-30 553,-10 533,-10"/>
<text text-anchor="start" x="556.73" y="-15.4" font-family="Times-12" font-size="14.00"> &#160;Exports</text>
<g id="clust1" class="cluster">
<title>cluster_IntegratorsModule</title>
<polygon fill="none" stroke="black" stroke-dasharray="1,5" points="8,-70 8,-268 742,-268 742,-70 8,-70"/>
</g>
<g id="clust3" class="cluster">
<title>cluster_IntegratorsModule_imports</title>
<polygon fill="none" stroke="black" points="204,-78 204,-130 734,-130 734,-78 204,-78"/>
</g>
<g id="clust6" class="cluster">
<title>cluster_IntegratorsModule_providers</title>
<polygon fill="none" stroke="black" points="16,-78 16,-130 196,-130 196,-78 16,-78"/>
</g>
<g id="clust4" class="cluster">
<title>cluster_IntegratorsModule_exports</title>
<polygon fill="none" stroke="black" points="321,-208 321,-260 459,-260 459,-208 321,-208"/>
</g>
<!-- DeviceGroupModule -->
<g id="node1" class="node">
<title>DeviceGroupModule</title>
<polygon fill="#8dd3c7" stroke="black" points="726.46,-122 723.46,-126 702.46,-126 699.46,-122 591.54,-122 591.54,-86 726.46,-86 726.46,-122"/>
<text text-anchor="middle" x="659" y="-99.8" font-family="Times,serif" font-size="14.00">DeviceGroupModule</text>
</g>
<!-- IntegratorsModule -->
<g id="node5" class="node">
<title>IntegratorsModule</title>
<polygon fill="#8dd3c7" stroke="black" points="450.19,-187 447.19,-191 426.19,-191 423.19,-187 329.81,-187 329.81,-151 450.19,-151 450.19,-187"/>
<text text-anchor="middle" x="390" y="-164.8" font-family="Times,serif" font-size="14.00">IntegratorsModule</text>
</g>
<!-- DeviceGroupModule&#45;&gt;IntegratorsModule -->
<g id="edge1" class="edge">
<title>DeviceGroupModule&#45;&gt;IntegratorsModule</title>
<path fill="none" stroke="black" d="M659,-122.28C659,-143.32 659,-175 659,-175 659,-175 460.37,-175 460.37,-175"/>
<polygon fill="black" stroke="black" points="460.37,-171.5 450.37,-175 460.37,-178.5 460.37,-171.5"/>
</g>
<!-- DeviceModule -->
<g id="node2" class="node">
<title>DeviceModule</title>
<polygon fill="#8dd3c7" stroke="black" points="573.69,-122 570.69,-126 549.69,-126 546.69,-122 474.31,-122 474.31,-86 573.69,-86 573.69,-122"/>
<text text-anchor="middle" x="524" y="-99.8" font-family="Times,serif" font-size="14.00">DeviceModule</text>
</g>
<!-- DeviceModule&#45;&gt;IntegratorsModule -->
<g id="edge2" class="edge">
<title>DeviceModule&#45;&gt;IntegratorsModule</title>
<path fill="none" stroke="black" d="M524,-122.02C524,-139.37 524,-163 524,-163 524,-163 460.34,-163 460.34,-163"/>
<polygon fill="black" stroke="black" points="460.34,-159.5 450.34,-163 460.34,-166.5 460.34,-159.5"/>
</g>
<!-- OrganizationModule -->
<g id="node3" class="node">
<title>OrganizationModule</title>
<polygon fill="#8dd3c7" stroke="black" points="456.13,-122 453.13,-126 432.13,-126 429.13,-122 323.87,-122 323.87,-86 456.13,-86 456.13,-122"/>
<text text-anchor="middle" x="390" y="-99.8" font-family="Times,serif" font-size="14.00">OrganizationModule</text>
</g>
<!-- OrganizationModule&#45;&gt;IntegratorsModule -->
<g id="edge3" class="edge">
<title>OrganizationModule&#45;&gt;IntegratorsModule</title>
<path fill="none" stroke="black" d="M390,-122.11C390,-122.11 390,-140.99 390,-140.99"/>
<polygon fill="black" stroke="black" points="386.5,-140.99 390,-150.99 393.5,-140.99 386.5,-140.99"/>
</g>
<!-- ReadsModule -->
<g id="node4" class="node">
<title>ReadsModule</title>
<polygon fill="#8dd3c7" stroke="black" points="305.76,-122 302.76,-126 281.76,-126 278.76,-122 212.24,-122 212.24,-86 305.76,-86 305.76,-122"/>
<text text-anchor="middle" x="259" y="-99.8" font-family="Times,serif" font-size="14.00">ReadsModule</text>
</g>
<!-- ReadsModule&#45;&gt;IntegratorsModule -->
<g id="edge4" class="edge">
<title>ReadsModule&#45;&gt;IntegratorsModule</title>
<path fill="none" stroke="black" d="M259,-122.02C259,-139.37 259,-163 259,-163 259,-163 319.87,-163 319.87,-163"/>
<polygon fill="black" stroke="black" points="319.87,-166.5 329.87,-163 319.87,-159.5 319.87,-166.5"/>
</g>
<!-- IntegratorsService  -->
<g id="node6" class="node">
<title>IntegratorsService </title>
<polygon fill="#fb8072" stroke="black" points="451.11,-252 328.89,-252 328.89,-216 451.11,-216 451.11,-252"/>
<text text-anchor="middle" x="390" y="-229.8" font-family="Times,serif" font-size="14.00">IntegratorsService </text>
</g>
<!-- IntegratorsModule&#45;&gt;IntegratorsService  -->
<g id="edge5" class="edge">
<title>IntegratorsModule&#45;&gt;IntegratorsService </title>
<path fill="none" stroke="black" stroke-dasharray="5,2" d="M390,-187.11C390,-187.11 390,-205.99 390,-205.99"/>
<polygon fill="black" stroke="black" points="386.5,-205.99 390,-215.99 393.5,-205.99 386.5,-205.99"/>
</g>
<!-- IntegratorsService -->
<g id="node7" class="node">
<title>IntegratorsService</title>
<ellipse fill="#fdb462" stroke="black" cx="106" cy="-104" rx="81.64" ry="18"/>
<text text-anchor="middle" x="106" y="-99.8" font-family="Times,serif" font-size="14.00">IntegratorsService</text>
</g>
<!-- IntegratorsService&#45;&gt;IntegratorsModule -->
<g id="edge6" class="edge">
<title>IntegratorsService&#45;&gt;IntegratorsModule</title>
<path fill="none" stroke="black" d="M106,-122.28C106,-143.32 106,-175 106,-175 106,-175 319.77,-175 319.77,-175"/>
<polygon fill="black" stroke="black" points="319.77,-178.5 329.77,-175 319.77,-171.5 319.77,-178.5"/>
</g>
</g>
</svg>
