<?xml version="1.0" encoding="UTF-8" standalone="no"?>
<!DOCTYPE svg PUBLIC "-//W3C//DTD SVG 1.1//EN"
 "http://www.w3.org/Graphics/SVG/1.1/DTD/svg11.dtd">
<!-- Generated by graphviz version 2.47.0 (20210316.0004)
 -->
<!-- Title: dependencies Pages: 1 -->
<svg width="504pt" height="284pt"
 viewBox="0.00 0.00 504.00 284.00" xmlns="http://www.w3.org/2000/svg" xmlns:xlink="http://www.w3.org/1999/xlink">
<g id="graph0" class="graph" transform="scale(1 1) rotate(0) translate(4 280)">
<title>dependencies</title>
<polygon fill="white" stroke="transparent" points="-4,4 -4,-280 500,-280 500,4 -4,4"/>
<text text-anchor="start" x="227.01" y="-42.4" font-family="Times-12" font-weight="bold" font-size="14.00">Legend</text>
<polygon fill="#ffffb3" stroke="transparent" points="14,-10 14,-30 34,-30 34,-10 14,-10"/>
<text text-anchor="start" x="37.63" y="-15.4" font-family="Times-12" font-size="14.00"> &#160;Declarations</text>
<polygon fill="#8dd3c7" stroke="transparent" points="127,-10 127,-30 147,-30 147,-10 127,-10"/>
<text text-anchor="start" x="150.73" y="-15.4" font-family="Times-12" font-size="14.00"> &#160;Module</text>
<polygon fill="#80b1d3" stroke="transparent" points="213,-10 213,-30 233,-30 233,-10 213,-10"/>
<text text-anchor="start" x="236.78" y="-15.4" font-family="Times-12" font-size="14.00"> &#160;Bootstrap</text>
<polygon fill="#fdb462" stroke="transparent" points="310,-10 310,-30 330,-30 330,-10 310,-10"/>
<text text-anchor="start" x="333.67" y="-15.4" font-family="Times-12" font-size="14.00"> &#160;Providers</text>
<polygon fill="#fb8072" stroke="transparent" points="406,-10 406,-30 426,-30 426,-10 406,-10"/>
<text text-anchor="start" x="429.73" y="-15.4" font-family="Times-12" font-size="14.00"> &#160;Exports</text>
<g id="clust1" class="cluster">
<title>cluster_OrganizationModule</title>
<polygon fill="none" stroke="black" stroke-dasharray="1,5" points="37,-70 37,-268 459,-268 459,-70 37,-70"/>
</g>
<g id="clust4" class="cluster">
<title>cluster_OrganizationModule_exports</title>
<polygon fill="none" stroke="black" points="225,-208 225,-260 375,-260 375,-208 225,-208"/>
</g>
<g id="clust3" class="cluster">
<title>cluster_OrganizationModule_imports</title>
<polygon fill="none" stroke="black" points="249,-78 249,-130 451,-130 451,-78 249,-78"/>
</g>
<g id="clust6" class="cluster">
<title>cluster_OrganizationModule_providers</title>
<polygon fill="none" stroke="black" points="45,-78 45,-130 241,-130 241,-78 45,-78"/>
</g>
<!-- FileModule -->
<g id="node1" class="node">
<title>FileModule</title>
<polygon fill="#8dd3c7" stroke="black" points="442.83,-122 439.83,-126 418.83,-126 415.83,-122 361.17,-122 361.17,-86 442.83,-86 442.83,-122"/>
<text text-anchor="middle" x="402" y="-99.8" font-family="Times,serif" font-size="14.00">FileModule</text>
</g>
<!-- OrganizationModule -->
<g id="node3" class="node">
<title>OrganizationModule</title>
<polygon fill="#8dd3c7" stroke="black" points="366.13,-187 363.13,-191 342.13,-191 339.13,-187 233.87,-187 233.87,-151 366.13,-151 366.13,-187"/>
<text text-anchor="middle" x="300" y="-164.8" font-family="Times,serif" font-size="14.00">OrganizationModule</text>
</g>
<!-- FileModule&#45;&gt;OrganizationModule -->
<g id="edge1" class="edge">
<title>FileModule&#45;&gt;OrganizationModule</title>
<path fill="none" stroke="black" d="M361.31,-104C355.89,-104 352.17,-104 352.17,-104 352.17,-104 352.17,-140.89 352.17,-140.89"/>
<polygon fill="black" stroke="black" points="348.67,-140.89 352.17,-150.89 355.67,-140.89 348.67,-140.89"/>
</g>
<!-- MailModule -->
<g id="node2" class="node">
<title>MailModule</title>
<polygon fill="#8dd3c7" stroke="black" points="342.99,-122 339.99,-126 318.99,-126 315.99,-122 257.01,-122 257.01,-86 342.99,-86 342.99,-122"/>
<text text-anchor="middle" x="300" y="-99.8" font-family="Times,serif" font-size="14.00">MailModule</text>
</g>
<!-- MailModule&#45;&gt;OrganizationModule -->
<g id="edge2" class="edge">
<title>MailModule&#45;&gt;OrganizationModule</title>
<path fill="none" stroke="black" d="M300,-122.11C300,-122.11 300,-140.99 300,-140.99"/>
<polygon fill="black" stroke="black" points="296.5,-140.99 300,-150.99 303.5,-140.99 296.5,-140.99"/>
</g>
<!-- OrganizationService  -->
<g id="node4" class="node">
<title>OrganizationService </title>
<polygon fill="#fb8072" stroke="black" points="367.06,-252 232.94,-252 232.94,-216 367.06,-216 367.06,-252"/>
<text text-anchor="middle" x="300" y="-229.8" font-family="Times,serif" font-size="14.00">OrganizationService </text>
</g>
<!-- OrganizationModule&#45;&gt;OrganizationService  -->
<g id="edge3" class="edge">
<title>OrganizationModule&#45;&gt;OrganizationService </title>
<path fill="none" stroke="black" stroke-dasharray="5,2" d="M300,-187.11C300,-187.11 300,-205.99 300,-205.99"/>
<polygon fill="black" stroke="black" points="296.5,-205.99 300,-215.99 303.5,-205.99 296.5,-205.99"/>
</g>
<!-- OrganizationService -->
<g id="node5" class="node">
<title>OrganizationService</title>
<ellipse fill="#fdb462" stroke="black" cx="143" cy="-104" rx="90.31" ry="18"/>
<text text-anchor="middle" x="143" y="-99.8" font-family="Times,serif" font-size="14.00">OrganizationService</text>
</g>
<!-- OrganizationService&#45;&gt;OrganizationModule -->
<g id="edge4" class="edge">
<title>OrganizationService&#45;&gt;OrganizationModule</title>
<path fill="none" stroke="black" d="M233.6,-104C240.79,-104 245.34,-104 245.34,-104 245.34,-104 245.34,-140.89 245.34,-140.89"/>
<polygon fill="black" stroke="black" points="241.84,-140.89 245.34,-150.89 248.84,-140.89 241.84,-140.89"/>
</g>
</g>
</svg>
