<svg width="182" height="50" viewBox="0 0 182 50" fill="none" xmlns="http://www.w3.org/2000/svg">
<rect x="156" y="4" width="26" height="12" rx="6" fill="#404040"/>
<path d="M164.337 9.84C164.581 9.892 164.777 10.014 164.925 10.206C165.073 10.394 165.147 10.61 165.147 10.854C165.147 11.206 165.023 11.486 164.775 11.694C164.531 11.898 164.189 12 163.749 12H161.787V7.788H163.683C164.111 7.788 164.445 7.886 164.685 8.082C164.929 8.278 165.051 8.544 165.051 8.88C165.051 9.128 164.985 9.334 164.853 9.498C164.725 9.662 164.553 9.776 164.337 9.84ZM162.813 9.492H163.485C163.653 9.492 163.781 9.456 163.869 9.384C163.961 9.308 164.007 9.198 164.007 9.054C164.007 8.91 163.961 8.8 163.869 8.724C163.781 8.648 163.653 8.61 163.485 8.61H162.813V9.492ZM163.569 11.172C163.741 11.172 163.873 11.134 163.965 11.058C164.061 10.978 164.109 10.864 164.109 10.716C164.109 10.568 164.059 10.452 163.959 10.368C163.863 10.284 163.729 10.242 163.557 10.242H162.813V11.172H163.569ZM166.768 8.61V9.462H168.142V10.254H166.768V11.178H168.322V12H165.742V7.788H168.322V8.61H166.768ZM172.018 7.788V8.61H170.902V12H169.876V8.61H168.76V7.788H172.018ZM175.155 11.256H173.583L173.331 12H172.257L173.781 7.788H174.969L176.493 12H175.407L175.155 11.256ZM174.891 10.464L174.369 8.922L173.853 10.464H174.891Z" fill="white"/>
<path d="M16.6999 29.4996V27.0996C16.6999 27.0226 16.6846 26.9464 16.6548 26.8753C16.625 26.8043 16.5814 26.7399 16.5265 26.6859C16.4716 26.6319 16.4064 26.5894 16.3349 26.5609C16.2634 26.5323 16.1869 26.5183 16.1099 26.5196H13.6999C13.5478 26.5222 13.4028 26.5845 13.2962 26.693C13.1896 26.8015 13.1299 26.9475 13.1299 27.0996V29.4996C13.1299 29.6534 13.191 29.801 13.2998 29.9097C13.4085 30.0185 13.5561 30.0796 13.7099 30.0796H16.1199C16.2729 30.077 16.4189 30.0151 16.5272 29.9069C16.6354 29.7987 16.6973 29.6526 16.6999 29.4996Z" fill="#F2BE1A"/>
<path d="M12.12 20.2905H14.54C14.6939 20.2905 14.8414 20.2294 14.9502 20.1206C15.0589 20.0118 15.12 19.8643 15.12 19.7105V17.3105C15.12 17.1566 15.0589 17.0091 14.9502 16.9003C14.8414 16.7916 14.6939 16.7305 14.54 16.7305H12.12C11.9662 16.7305 11.8187 16.7916 11.7099 16.9003C11.6011 17.0091 11.54 17.1566 11.54 17.3105V19.7105C11.54 19.8643 11.6011 20.0118 11.7099 20.1206C11.8187 20.2294 11.9662 20.2905 12.12 20.2905Z" fill="#F2BE1A"/>
<path d="M16.5901 14.7999V16.5399C16.5846 16.5975 16.591 16.6556 16.609 16.7106C16.627 16.7656 16.6561 16.8162 16.6946 16.8594C16.7331 16.9026 16.7801 16.9374 16.8327 16.9615C16.8852 16.9857 16.9422 16.9988 17.0001 16.9999H18.7501C18.8615 16.9999 18.9683 16.9556 19.0471 16.8769C19.1258 16.7981 19.1701 16.6913 19.1701 16.5799V14.7999C19.1701 14.6885 19.1258 14.5817 19.0471 14.5029C18.9683 14.4241 18.8615 14.3799 18.7501 14.3799H17.0001C16.8887 14.3799 16.7819 14.4241 16.7031 14.5029C16.6243 14.5817 16.5801 14.6885 16.5801 14.7999" fill="#F2BE1A"/>
<path d="M11.8999 11.8203H16.9999C17.3192 11.8125 17.6229 11.6809 17.8469 11.4532C18.0708 11.2255 18.1974 10.9197 18.1999 10.6003V5.60031C18.2066 5.43712 18.1807 5.27424 18.1238 5.12116C18.0668 4.96808 17.98 4.82788 17.8683 4.70872C17.7566 4.58957 17.6223 4.49386 17.4732 4.42717C17.3241 4.36049 17.1632 4.32416 16.9999 4.32031H11.8999C11.5737 4.32031 11.2609 4.4499 11.0302 4.68057C10.7995 4.91124 10.6699 5.2241 10.6699 5.55031V10.6003C10.6699 10.7614 10.7018 10.9208 10.7637 11.0695C10.8257 11.2182 10.9164 11.3531 11.0308 11.4665C11.1451 11.58 11.2808 11.6696 11.43 11.7303C11.5791 11.7911 11.7389 11.8216 11.8999 11.8203Z" fill="#F2BE1A"/>
<path d="M10.8598 26.57C10.8598 26.363 10.8188 26.158 10.7393 25.9669C10.6598 25.7758 10.5432 25.6022 10.3964 25.4563C10.2495 25.3104 10.0753 25.195 9.88364 25.1167C9.69201 25.0383 9.48677 24.9987 9.27976 25H2.78976C2.58274 24.9987 2.37751 25.0383 2.18587 25.1167C1.99424 25.195 1.81998 25.3104 1.67313 25.4563C1.52628 25.6022 1.40974 25.7758 1.33022 25.9669C1.25069 26.158 1.20976 26.363 1.20976 26.57V33C1.20577 33.2087 1.24343 33.4161 1.32055 33.6101C1.39766 33.804 1.51267 33.9807 1.65886 34.1296C1.80505 34.2786 1.97947 34.397 2.17194 34.4777C2.3644 34.5585 2.57104 34.6001 2.77976 34.6H9.27976C9.48894 34.6 9.69605 34.5585 9.88906 34.4779C10.0821 34.3972 10.2571 34.2791 10.4041 34.1302C10.5511 33.9814 10.6671 33.8048 10.7453 33.6108C10.8235 33.4168 10.8624 33.2092 10.8598 33V26.57Z" fill="#F2BE1A"/>
<path d="M20.2101 37.6198C20.2074 37.2043 20.0412 36.8064 19.7473 36.5126C19.4535 36.2187 19.0556 36.0525 18.6401 36.0498H12.1401C11.9339 36.0485 11.7295 36.0878 11.5385 36.1655C11.3475 36.2432 11.1737 36.3577 11.027 36.5026C10.8802 36.6475 10.7635 36.8198 10.6834 37.0098C10.6033 37.1998 10.5614 37.4037 10.5601 37.6098V44.0598C10.5601 44.4762 10.7255 44.8756 11.0199 45.17C11.3143 45.4644 11.7137 45.6298 12.1301 45.6298H18.6301C18.8371 45.6312 19.0423 45.5915 19.2339 45.5132C19.4256 45.4349 19.5998 45.3195 19.7467 45.1735C19.8935 45.0276 20.0101 44.8541 20.0896 44.663C20.1691 44.4718 20.2101 44.2669 20.2101 44.0598V37.6198Z" fill="#F2BE1A"/>
<path d="M3.24014 20.4596H7.76014C8.05188 20.4596 8.33166 20.3437 8.53795 20.1374C8.74424 19.9311 8.86014 19.6513 8.86014 19.3596V14.8596C8.86014 14.7156 8.83162 14.573 8.77622 14.4401C8.72082 14.3072 8.63963 14.1866 8.53736 14.0853C8.43508 13.9839 8.31373 13.9038 8.18033 13.8497C8.04693 13.7955 7.90412 13.7683 7.76014 13.7696H3.24014C3.09616 13.7683 2.95334 13.7955 2.81994 13.8497C2.68654 13.9038 2.5652 13.9839 2.46292 14.0853C2.36064 14.1866 2.27946 14.3072 2.22405 14.4401C2.16865 14.573 2.14013 14.7156 2.14014 14.8596V19.3596C2.14014 19.6513 2.25603 19.9311 2.46232 20.1374C2.66861 20.3437 2.9484 20.4596 3.24014 20.4596Z" fill="#F2BE1A"/>
<path d="M14.25 32.5195C14.189 32.5195 14.1305 32.5438 14.0874 32.5869C14.0443 32.63 14.02 32.6885 14.02 32.7495V33.7495C14.02 33.8105 14.0443 33.869 14.0874 33.9122C14.1305 33.9553 14.189 33.9795 14.25 33.9795H15.19C15.251 33.9795 15.3095 33.9553 15.3527 33.9122C15.3958 33.869 15.42 33.8105 15.42 33.7495V32.8095C15.42 32.7798 15.414 32.7503 15.4024 32.723C15.3907 32.6956 15.3736 32.6709 15.3521 32.6503C15.3306 32.6298 15.3051 32.6138 15.2773 32.6033C15.2494 32.5929 15.2197 32.5882 15.19 32.5895L14.25 32.5195Z" fill="#404041"/>
<path d="M13.12 14.6596V13.2396C13.12 13.1468 13.0831 13.0578 13.0175 12.9922C12.9518 12.9265 12.8628 12.8896 12.77 12.8896H11.33C11.2372 12.8896 11.1481 12.9265 11.0825 12.9922C11.0169 13.0578 10.98 13.1468 10.98 13.2396V14.6696C10.985 14.7599 11.0237 14.845 11.0886 14.908C11.1534 14.971 11.2396 15.0073 11.33 15.0096H12.77C12.8611 15.0097 12.9486 14.9742 13.014 14.9107C13.0794 14.8472 13.1174 14.7607 13.12 14.6696" fill="#404041"/>
<path d="M18.8202 31.21C18.7 31.2126 18.5855 31.2622 18.5014 31.3482C18.4173 31.4342 18.3702 31.5497 18.3702 31.67V33.54C18.3689 33.5999 18.3796 33.6595 18.4016 33.7152C18.4236 33.771 18.4565 33.8218 18.4984 33.8646C18.5404 33.9075 18.5904 33.9415 18.6457 33.9648C18.7009 33.988 18.7603 34 18.8202 34H20.7102C20.8305 33.9973 20.9449 33.9477 21.0291 33.8617C21.1132 33.7758 21.1603 33.6602 21.1602 33.54V31.67C21.1602 31.5506 21.1128 31.4362 21.0284 31.3518C20.944 31.2674 20.8296 31.22 20.7102 31.22L18.8202 31.21Z" fill="#404041"/>
<path d="M19.3 3.34965H20.63C20.6787 3.35763 20.7285 3.35427 20.7756 3.33982C20.8228 3.32537 20.8659 3.30022 20.9017 3.26634C20.9376 3.23246 20.9651 3.19077 20.9821 3.1445C20.9991 3.09824 21.0053 3.04867 21 2.99965V1.70965C21 1.62478 20.9663 1.54339 20.9063 1.48337C20.8463 1.42336 20.7649 1.38965 20.68 1.38965H19.3C19.2203 1.3946 19.1454 1.42914 19.0899 1.4865C19.0344 1.54385 19.0023 1.61987 19 1.69965V2.99965C19 3.08452 19.0337 3.16591 19.0937 3.22592C19.1537 3.28593 19.2351 3.31965 19.32 3.31965" fill="#404041"/>
<path d="M22.3302 11.39V9.45C22.325 9.32885 22.2732 9.21438 22.1856 9.13052C22.0981 9.04665 21.9814 8.99989 21.8602 9H19.9102C19.7846 8.99997 19.664 9.04917 19.5743 9.13704C19.4845 9.2249 19.4328 9.34444 19.4302 9.47V11.41C19.4353 11.5338 19.4882 11.6508 19.5776 11.7366C19.6671 11.8223 19.7863 11.8701 19.9102 11.87H21.8502C21.9731 11.87 22.0912 11.8219 22.179 11.7359C22.2669 11.6499 22.3176 11.5329 22.3202 11.41" fill="#404041"/>
<path d="M22.5699 46.0703H20.5699C20.4426 46.0703 20.3206 46.1209 20.2305 46.2109C20.1405 46.3009 20.09 46.423 20.09 46.5503V48.5503C20.0886 48.6134 20.0997 48.676 20.1226 48.7348C20.1455 48.7935 20.1798 48.8472 20.2234 48.8927C20.2671 48.9382 20.3193 48.9746 20.377 49C20.4347 49.0253 20.4969 49.039 20.5599 49.0403H22.5599C22.6855 49.0403 22.8061 48.9911 22.8959 48.9033C22.9856 48.8154 23.0373 48.6959 23.04 48.5703V46.5703C23.04 46.443 22.9894 46.3209 22.8994 46.2309C22.8093 46.1409 22.6873 46.0903 22.5599 46.0903" fill="#404041"/>
<path d="M7.46001 37.7695H5.57001C5.45151 37.7747 5.33958 37.8254 5.25759 37.9111C5.1756 37.9968 5.1299 38.1109 5.13001 38.2295V40.0995C5.12857 40.1599 5.13957 40.2199 5.16231 40.2758C5.18505 40.3317 5.21905 40.3823 5.26219 40.4245C5.30534 40.4667 5.35671 40.4996 5.4131 40.5211C5.4695 40.5426 5.52971 40.5523 5.59001 40.5495H7.47001C7.59029 40.5496 7.70581 40.5025 7.79179 40.4184C7.87778 40.3342 7.92739 40.2198 7.93001 40.0995V38.2295C7.92509 38.1091 7.87504 37.9949 7.78982 37.9097C7.7046 37.8245 7.59043 37.7745 7.47001 37.7695" fill="#404041"/>
<path d="M5.58977 11.8503H6.99977C7.08823 11.8504 7.17323 11.8159 7.23671 11.7543C7.3002 11.6927 7.33716 11.6087 7.33977 11.5203V10.1503C7.33716 10.0619 7.3002 9.97795 7.23671 9.91634C7.17323 9.85472 7.08823 9.82027 6.99977 9.82031H5.58977C5.50224 9.82031 5.41831 9.85508 5.35642 9.91697C5.29453 9.97885 5.25977 10.0628 5.25977 10.1503V11.5203C5.25977 11.6078 5.29453 11.6918 5.35642 11.7537C5.41831 11.8155 5.50224 11.8503 5.58977 11.8503Z" fill="#404041"/>
<path d="M2.8 23.62V21.75C2.79745 21.6288 2.74816 21.5133 2.66244 21.4276C2.57672 21.3419 2.4612 21.2926 2.34 21.29H0.46C0.399592 21.29 0.339775 21.3019 0.283966 21.3251C0.228156 21.3482 0.177446 21.3821 0.134731 21.4248C0.0920159 21.4675 0.0581326 21.5182 0.0350154 21.574C0.0118983 21.6298 0 21.6896 0 21.75L0 23.62C0.0025524 23.7412 0.0518359 23.8568 0.137556 23.9425C0.223275 24.0282 0.338801 24.0775 0.46 24.08H2.34C2.4612 24.0775 2.57672 24.0282 2.66244 23.9425C2.74816 23.8568 2.79745 23.7412 2.8 23.62Z" fill="#404041"/>
<path d="M8.68994 22.2497V23.3997C8.68992 23.436 8.69722 23.4719 8.71141 23.5054C8.7256 23.5388 8.74638 23.569 8.77252 23.5942C8.79867 23.6194 8.82962 23.6391 8.86354 23.6521C8.89746 23.665 8.93365 23.671 8.96994 23.6697H10.1199C10.1925 23.6697 10.2622 23.6416 10.3145 23.5912C10.3667 23.5409 10.3974 23.4722 10.3999 23.3997V22.2497C10.3974 22.1772 10.3667 22.1085 10.3145 22.0581C10.2622 22.0078 10.1925 21.9796 10.1199 21.9797H8.99994C8.96365 21.9783 8.92746 21.9843 8.89354 21.9973C8.85962 22.0103 8.82867 22.0299 8.80253 22.0551C8.77638 22.0803 8.7556 22.1106 8.74141 22.144C8.72722 22.1774 8.71992 22.2134 8.71994 22.2497" fill="#404041"/>
<path d="M23.8299 1.00012V2.28012H25.9999C26.2378 2.28272 26.4652 2.37837 26.6335 2.5466C26.8017 2.71482 26.8973 2.94223 26.8999 3.18012V6.93012C26.8999 7.16881 26.8051 7.39773 26.6363 7.56651C26.4676 7.7353 26.2386 7.83012 25.9999 7.83012C26.1144 7.69231 26.178 7.51928 26.1799 7.34012V4.18012C26.1813 4.079 26.1627 3.97861 26.1252 3.88468C26.0877 3.79075 26.0321 3.70513 25.9615 3.6327C25.8909 3.56027 25.8068 3.50245 25.7139 3.46254C25.6209 3.42263 25.5211 3.40142 25.4199 3.40012H22.2099C22.0057 3.40012 21.8099 3.48124 21.6655 3.62565C21.5211 3.77005 21.4399 3.9659 21.4399 4.17012V7.35012C21.4426 7.5526 21.5249 7.74589 21.669 7.88814C21.8131 8.03038 22.0074 8.11013 22.2099 8.11012H23.8299V15.5801C26.1863 15.5546 28.4653 16.4208 30.2099 18.0051C31.9545 19.5893 33.0357 21.7744 33.2369 24.1224C33.438 26.4703 32.7442 28.8075 31.2945 30.6654C29.8448 32.5232 27.7463 33.7644 25.4199 34.1401C25.5712 34.1525 25.7124 34.2209 25.8159 34.3319C25.9195 34.4428 25.978 34.5884 25.9799 34.7401V37.2201C25.9799 37.3792 25.9167 37.5319 25.8042 37.6444C25.6917 37.7569 25.5391 37.8201 25.3799 37.8201H25.3299C25.34 37.7875 25.34 37.7527 25.3299 37.7201V35.8401C25.3299 35.7208 25.2825 35.6063 25.1981 35.5219C25.1137 35.4375 24.9993 35.3901 24.8799 35.3901H22.9999C22.8797 35.3901 22.7641 35.4372 22.6782 35.5213C22.5922 35.6054 22.5426 35.7199 22.5399 35.8401V37.7201C22.5426 37.8404 22.5922 37.9548 22.6782 38.0389C22.7641 38.1231 22.8797 38.1701 22.9999 38.1701H23.8199V39.7301C23.9213 39.687 24.0298 39.6632 24.1399 39.6601H27.5399C27.7601 39.6601 27.9712 39.7476 28.1268 39.9032C28.2825 40.0589 28.3699 40.27 28.3699 40.4901V43.9001C28.3673 44.1185 28.2787 44.3271 28.1233 44.4806C27.968 44.6341 27.7583 44.7201 27.5399 44.7201H27.0999C27.2022 44.6001 27.2589 44.4478 27.2599 44.2901V41.4301C27.2548 41.247 27.1791 41.073 27.0486 40.9444C26.9182 40.8158 26.7431 40.7426 26.5599 40.7401H23.6799C23.4969 40.7401 23.3214 40.8128 23.192 40.9422C23.0626 41.0716 22.9899 41.2471 22.9899 41.4301V44.2901C22.9899 44.4741 23.0623 44.6506 23.1914 44.7816C23.3205 44.9126 23.496 44.9875 23.6799 44.9901H23.8299V48.8701C27.0143 48.9352 30.1796 48.3642 33.1405 47.1906C36.1015 46.017 38.7984 44.2644 41.0735 42.0354C43.3485 39.8063 45.1559 37.1458 46.3898 34.2094C47.6237 31.2731 48.2592 28.1201 48.2592 24.9351C48.2592 21.7501 47.6237 18.5971 46.3898 15.6608C45.1559 12.7245 43.3485 10.0639 41.0735 7.83488C38.7984 5.60586 36.1015 3.85322 33.1405 2.67961C30.1796 1.506 27.0143 0.935026 23.8299 1.00012Z" fill="#F2BE1A"/>
<path d="M56.4601 45.0504H55.3701V34.6504H56.4601V45.0504Z" fill="black" stroke="black" stroke-linejoin="round"/>
<path d="M69.3299 43.4704H69.3599V34.6504H70.4399V45.0504H69.0899L62.7299 36.1504H62.6999V45.0504H61.6099V34.6504H62.9699L69.3299 43.4704Z" fill="black" stroke="black" stroke-linejoin="round"/>
<path d="M76.6901 45.0504H75.6001V34.6504H76.6901V45.0504Z" fill="black" stroke="black" stroke-linejoin="round"/>
<path d="M85.2599 45.0504H84.1799V35.6204H80.6099V34.6504H88.8399V35.6204H85.2599V45.0504Z" fill="black" stroke="black" stroke-linejoin="round"/>
<path d="M93.8398 45.0504H92.7598V34.6504H93.8398V45.0504Z" fill="black" stroke="black" stroke-linejoin="round"/>
<path d="M100.4 41.3504H105L102.69 35.8804L100.4 41.3504ZM98.8198 45.0604H97.5498L102.19 34.6504H103.25L107.89 45.0604H106.63L105.45 42.3204H99.9998L98.8198 45.0604Z" fill="black" stroke="black" stroke-linejoin="round"/>
<path d="M115.02 45.0504H113.94V35.6204H110.36V34.6504H118.59V35.6204H115.02V45.0504Z" fill="black" stroke="black" stroke-linejoin="round"/>
<path d="M123.6 45.0504H122.51V34.6504H123.6V45.0504Z" fill="black" stroke="black" stroke-linejoin="round"/>
<path d="M131.86 43.4704H131.89L135.39 34.6504H136.56L132.4 45.0504H131.31L127.26 34.6504H128.47L131.86 43.4704Z" fill="black" stroke="black" stroke-linejoin="round"/>
<path d="M141.31 44.0904H147.02V45.0504H140.22V34.6504H146.84V35.6204H141.31V39.1604H146.48V40.1304H141.31V44.0904Z" fill="black" stroke="black" stroke-linejoin="round"/>
<path d="M60.1801 23.3002H62.8301C63.9366 23.3008 65.0399 23.1801 66.1201 22.9402C67.07 22.7257 67.9654 22.3171 68.7501 21.7402C69.5074 21.1723 70.1093 20.4225 70.5001 19.5602C70.9507 18.5198 71.1691 17.3937 71.1401 16.2602C71.1607 15.2436 70.9415 14.2363 70.5001 13.3202C70.096 12.5055 69.507 11.7967 68.7801 11.2502C68.0233 10.6774 67.1648 10.2533 66.2501 10.0002C65.2525 9.72958 64.2237 9.59173 63.1901 9.59024H60.1901V23.3002H60.1801ZM55.0801 5.00024H62.7301C64.5034 4.97507 66.2732 5.16649 68.0001 5.57024C69.576 5.93749 71.0621 6.61762 72.3701 7.57024C73.6504 8.50582 74.6807 9.7422 75.3701 11.1702C76.1446 12.8484 76.5211 14.6827 76.4701 16.5302C76.5033 18.2335 76.1404 19.9212 75.4101 21.4602C74.7154 22.8391 73.7253 24.0478 72.5101 25.0002C71.2769 25.9849 69.8689 26.7279 68.3601 27.1902C66.7632 27.6987 65.096 27.9518 63.4201 27.9402H55.0801V5.00024Z" fill="#F2BE1A"/>
<path fill-rule="evenodd" clip-rule="evenodd" d="M78.3599 17.9297H86.4099V21.8297H78.3599V17.9297Z" fill="#F2BE1A"/>
<path d="M94.6801 14.4803H97.6801C98.1401 14.4803 98.6201 14.4803 99.1301 14.4303C99.6091 14.4008 100.081 14.2997 100.53 14.1303C100.923 13.9662 101.267 13.7046 101.53 13.3703C101.824 12.9389 101.965 12.4213 101.93 11.9003C101.957 11.4076 101.832 10.9186 101.57 10.5003C101.345 10.1621 101.035 9.88953 100.67 9.71029C100.268 9.5128 99.835 9.38434 99.3901 9.33029C98.9296 9.26566 98.465 9.23557 98.0001 9.24029H94.6801V14.4803ZM89.5801 5.00029H98.5801C99.7057 4.99351 100.829 5.10749 101.93 5.34029C102.92 5.54129 103.864 5.92811 104.71 6.48029C105.516 7.01943 106.17 7.75623 106.61 8.62029C107.109 9.67177 107.349 10.8272 107.31 11.9903C107.341 13.4645 106.88 14.907 106 16.0903C105.088 17.2669 103.754 18.0417 102.28 18.2503L108.15 28.0003H102L97.1801 18.7903H94.7001V28.0003H89.5801V5.00029Z" fill="#F2BE1A"/>
<path d="M110.97 4.9502H126.7V9.6302H116.07V13.9302H126.11V18.6102H116.07V23.3002H127.29V27.9802H110.97V4.9502Z" fill="#F2BE1A"/>
<path d="M146.52 10.9399C146.023 10.331 145.389 9.84788 144.67 9.52985C143.429 9.02967 142.065 8.91672 140.759 9.20586C139.452 9.495 138.264 10.1727 137.35 11.1499C136.731 11.8371 136.252 12.6388 135.94 13.5099C135.596 14.4725 135.424 15.4878 135.43 16.5099C135.415 17.5326 135.588 18.5495 135.94 19.5099C136.258 20.3702 136.729 21.1662 137.33 21.8599C137.909 22.5116 138.617 23.036 139.41 23.3999C140.215 23.7709 141.093 23.9587 141.98 23.9499C142.922 23.9851 143.856 23.775 144.693 23.3403C145.529 22.9055 146.238 22.261 146.75 21.4699L151 24.5599C150.054 25.8817 148.764 26.9192 147.27 27.5599C145.807 28.2056 144.228 28.5459 142.63 28.5599C140.926 28.5786 139.232 28.2907 137.63 27.7099C136.144 27.1866 134.783 26.3628 133.63 25.2899C132.499 24.2178 131.612 22.915 131.03 21.4699C130.389 19.8819 130.073 18.1819 130.1 16.4699C130.072 14.7578 130.389 13.0576 131.03 11.4699C131.61 10.0234 132.497 8.72008 133.63 7.64985C134.777 6.56528 136.14 5.73398 137.63 5.20985C139.233 4.63376 140.926 4.34599 142.63 4.35985C143.3 4.37124 143.968 4.4314 144.63 4.53985C145.346 4.66386 146.049 4.8547 146.73 5.10985C147.433 5.36329 148.105 5.69895 148.73 6.10985C149.376 6.55492 149.953 7.09422 150.44 7.70985L146.51 10.8999L146.52 10.9399Z" fill="#F2BE1A"/>
</svg>
