<?xml version="1.0" encoding="UTF-8" standalone="no"?>
<!DOCTYPE svg PUBLIC "-//W3C//DTD SVG 1.1//EN"
 "http://www.w3.org/Graphics/SVG/1.1/DTD/svg11.dtd">
<!-- Generated by graphviz version 2.47.0 (20210316.0004)
 -->
<!-- Title: dependencies Pages: 1 -->
<svg width="778pt" height="211pt"
 viewBox="0.00 0.00 778.00 211.00" xmlns="http://www.w3.org/2000/svg" xmlns:xlink="http://www.w3.org/1999/xlink">
<g id="graph0" class="graph" transform="scale(1 1) rotate(0) translate(4 207)">
<title>dependencies</title>
<polygon fill="white" stroke="transparent" points="-4,4 -4,-207 774,-207 774,4 -4,4"/>
<text text-anchor="start" x="364.01" y="-42.4" font-family="Times-12" font-weight="bold" font-size="14.00">Legend</text>
<polygon fill="#ffffb3" stroke="transparent" points="151,-10 151,-30 171,-30 171,-10 151,-10"/>
<text text-anchor="start" x="174.63" y="-15.4" font-family="Times-12" font-size="14.00"> &#160;Declarations</text>
<polygon fill="#8dd3c7" stroke="transparent" points="264,-10 264,-30 284,-30 284,-10 264,-10"/>
<text text-anchor="start" x="287.73" y="-15.4" font-family="Times-12" font-size="14.00"> &#160;Module</text>
<polygon fill="#80b1d3" stroke="transparent" points="350,-10 350,-30 370,-30 370,-10 350,-10"/>
<text text-anchor="start" x="373.78" y="-15.4" font-family="Times-12" font-size="14.00"> &#160;Bootstrap</text>
<polygon fill="#fdb462" stroke="transparent" points="447,-10 447,-30 467,-30 467,-10 447,-10"/>
<text text-anchor="start" x="470.67" y="-15.4" font-family="Times-12" font-size="14.00"> &#160;Providers</text>
<polygon fill="#fb8072" stroke="transparent" points="543,-10 543,-30 563,-30 563,-10 543,-10"/>
<text text-anchor="start" x="566.73" y="-15.4" font-family="Times-12" font-size="14.00"> &#160;Exports</text>
<g id="clust1" class="cluster">
<title>cluster_CertificateLogModule</title>
<polygon fill="none" stroke="black" stroke-dasharray="1,5" points="8,-70 8,-195 762,-195 762,-70 8,-70"/>
</g>
<g id="clust3" class="cluster">
<title>cluster_CertificateLogModule_imports</title>
<polygon fill="none" stroke="black" points="232,-78 232,-130 754,-130 754,-78 232,-78"/>
</g>
<g id="clust6" class="cluster">
<title>cluster_CertificateLogModule_providers</title>
<polygon fill="none" stroke="black" points="16,-78 16,-130 224,-130 224,-78 16,-78"/>
</g>
<!-- DeviceGroupModule -->
<g id="node1" class="node">
<title>DeviceGroupModule</title>
<polygon fill="#8dd3c7" stroke="black" points="746.46,-122 743.46,-126 722.46,-126 719.46,-122 611.54,-122 611.54,-86 746.46,-86 746.46,-122"/>
<text text-anchor="middle" x="679" y="-99.8" font-family="Times,serif" font-size="14.00">DeviceGroupModule</text>
</g>
<!-- CertificateLogModule -->
<g id="node5" class="node">
<title>CertificateLogModule</title>
<polygon fill="#8dd3c7" stroke="black" points="480.68,-187 477.68,-191 456.68,-191 453.68,-187 339.32,-187 339.32,-151 480.68,-151 480.68,-187"/>
<text text-anchor="middle" x="410" y="-164.8" font-family="Times,serif" font-size="14.00">CertificateLogModule</text>
</g>
<!-- DeviceGroupModule&#45;&gt;CertificateLogModule -->
<g id="edge1" class="edge">
<title>DeviceGroupModule&#45;&gt;CertificateLogModule</title>
<path fill="none" stroke="black" d="M679,-122.28C679,-143.32 679,-175 679,-175 679,-175 490.68,-175 490.68,-175"/>
<polygon fill="black" stroke="black" points="490.68,-171.5 480.68,-175 490.68,-178.5 490.68,-171.5"/>
</g>
<!-- DeviceModule -->
<g id="node2" class="node">
<title>DeviceModule</title>
<polygon fill="#8dd3c7" stroke="black" points="593.69,-122 590.69,-126 569.69,-126 566.69,-122 494.31,-122 494.31,-86 593.69,-86 593.69,-122"/>
<text text-anchor="middle" x="544" y="-99.8" font-family="Times,serif" font-size="14.00">DeviceModule</text>
</g>
<!-- DeviceModule&#45;&gt;CertificateLogModule -->
<g id="edge2" class="edge">
<title>DeviceModule&#45;&gt;CertificateLogModule</title>
<path fill="none" stroke="black" d="M544,-122.02C544,-139.37 544,-163 544,-163 544,-163 490.92,-163 490.92,-163"/>
<polygon fill="black" stroke="black" points="490.92,-159.5 480.92,-163 490.92,-166.5 490.92,-159.5"/>
</g>
<!-- OrganizationModule -->
<g id="node3" class="node">
<title>OrganizationModule</title>
<polygon fill="#8dd3c7" stroke="black" points="476.13,-122 473.13,-126 452.13,-126 449.13,-122 343.87,-122 343.87,-86 476.13,-86 476.13,-122"/>
<text text-anchor="middle" x="410" y="-99.8" font-family="Times,serif" font-size="14.00">OrganizationModule</text>
</g>
<!-- OrganizationModule&#45;&gt;CertificateLogModule -->
<g id="edge3" class="edge">
<title>OrganizationModule&#45;&gt;CertificateLogModule</title>
<path fill="none" stroke="black" d="M410,-122.11C410,-122.11 410,-140.99 410,-140.99"/>
<polygon fill="black" stroke="black" points="406.5,-140.99 410,-150.99 413.5,-140.99 406.5,-140.99"/>
</g>
<!-- UserModule -->
<g id="node4" class="node">
<title>UserModule</title>
<polygon fill="#8dd3c7" stroke="black" points="325.98,-122 322.98,-126 301.98,-126 298.98,-122 240.02,-122 240.02,-86 325.98,-86 325.98,-122"/>
<text text-anchor="middle" x="283" y="-99.8" font-family="Times,serif" font-size="14.00">UserModule</text>
</g>
<!-- UserModule&#45;&gt;CertificateLogModule -->
<g id="edge4" class="edge">
<title>UserModule&#45;&gt;CertificateLogModule</title>
<path fill="none" stroke="black" d="M283,-122.02C283,-139.37 283,-163 283,-163 283,-163 329.07,-163 329.07,-163"/>
<polygon fill="black" stroke="black" points="329.07,-166.5 339.07,-163 329.07,-159.5 329.07,-166.5"/>
</g>
<!-- CertificateLogService -->
<g id="node6" class="node">
<title>CertificateLogService</title>
<ellipse fill="#fdb462" stroke="black" cx="120" cy="-104" rx="96.1" ry="18"/>
<text text-anchor="middle" x="120" y="-99.8" font-family="Times,serif" font-size="14.00">CertificateLogService</text>
</g>
<!-- CertificateLogService&#45;&gt;CertificateLogModule -->
<g id="edge5" class="edge">
<title>CertificateLogService&#45;&gt;CertificateLogModule</title>
<path fill="none" stroke="black" d="M120,-122.28C120,-143.32 120,-175 120,-175 120,-175 329.06,-175 329.06,-175"/>
<polygon fill="black" stroke="black" points="329.06,-178.5 339.06,-175 329.06,-171.5 329.06,-178.5"/>
</g>
</g>
</svg>
