<?xml version="1.0" encoding="UTF-8" standalone="no"?>
<!DOCTYPE svg PUBLIC "-//W3C//DTD SVG 1.1//EN"
 "http://www.w3.org/Graphics/SVG/1.1/DTD/svg11.dtd">
<!-- Generated by graphviz version 2.47.0 (20210316.0004)
 -->
<!-- Title: dependencies Pages: 1 -->
<svg width="674pt" height="211pt"
 viewBox="0.00 0.00 674.00 211.00" xmlns="http://www.w3.org/2000/svg" xmlns:xlink="http://www.w3.org/1999/xlink">
<g id="graph0" class="graph" transform="scale(1 1) rotate(0) translate(4 207)">
<title>dependencies</title>
<polygon fill="white" stroke="transparent" points="-4,4 -4,-207 670,-207 670,4 -4,4"/>
<text text-anchor="start" x="312.01" y="-42.4" font-family="Times-12" font-weight="bold" font-size="14.00">Legend</text>
<polygon fill="#ffffb3" stroke="transparent" points="99,-10 99,-30 119,-30 119,-10 99,-10"/>
<text text-anchor="start" x="122.63" y="-15.4" font-family="Times-12" font-size="14.00"> &#160;Declarations</text>
<polygon fill="#8dd3c7" stroke="transparent" points="212,-10 212,-30 232,-30 232,-10 212,-10"/>
<text text-anchor="start" x="235.73" y="-15.4" font-family="Times-12" font-size="14.00"> &#160;Module</text>
<polygon fill="#80b1d3" stroke="transparent" points="298,-10 298,-30 318,-30 318,-10 298,-10"/>
<text text-anchor="start" x="321.78" y="-15.4" font-family="Times-12" font-size="14.00"> &#160;Bootstrap</text>
<polygon fill="#fdb462" stroke="transparent" points="395,-10 395,-30 415,-30 415,-10 395,-10"/>
<text text-anchor="start" x="418.67" y="-15.4" font-family="Times-12" font-size="14.00"> &#160;Providers</text>
<polygon fill="#fb8072" stroke="transparent" points="491,-10 491,-30 511,-30 511,-10 491,-10"/>
<text text-anchor="start" x="514.73" y="-15.4" font-family="Times-12" font-size="14.00"> &#160;Exports</text>
<g id="clust1" class="cluster">
<title>cluster_CertificateLogModule</title>
<polygon fill="none" stroke="black" stroke-dasharray="1,5" points="8,-70 8,-195 658,-195 658,-70 8,-70"/>
</g>
<g id="clust3" class="cluster">
<title>cluster_CertificateLogModule_imports</title>
<polygon fill="none" stroke="black" points="232,-78 232,-130 650,-130 650,-78 232,-78"/>
</g>
<g id="clust6" class="cluster">
<title>cluster_CertificateLogModule_providers</title>
<polygon fill="none" stroke="black" points="16,-78 16,-130 224,-130 224,-78 16,-78"/>
</g>
<!-- DeviceGroupModule -->
<g id="node1" class="node">
<title>DeviceGroupModule</title>
<polygon fill="#8dd3c7" stroke="black" points="642.46,-122 639.46,-126 618.46,-126 615.46,-122 507.54,-122 507.54,-86 642.46,-86 642.46,-122"/>
<text text-anchor="middle" x="575" y="-99.8" font-family="Times,serif" font-size="14.00">DeviceGroupModule</text>
</g>
<!-- CertificateLogModule -->
<g id="node4" class="node">
<title>CertificateLogModule</title>
<polygon fill="#8dd3c7" stroke="black" points="443.68,-187 440.68,-191 419.68,-191 416.68,-187 302.32,-187 302.32,-151 443.68,-151 443.68,-187"/>
<text text-anchor="middle" x="373" y="-164.8" font-family="Times,serif" font-size="14.00">CertificateLogModule</text>
</g>
<!-- DeviceGroupModule&#45;&gt;CertificateLogModule -->
<g id="edge1" class="edge">
<title>DeviceGroupModule&#45;&gt;CertificateLogModule</title>
<path fill="none" stroke="black" d="M575,-122.11C575,-141.34 575,-169 575,-169 575,-169 453.65,-169 453.65,-169"/>
<polygon fill="black" stroke="black" points="453.65,-165.5 443.65,-169 453.65,-172.5 453.65,-165.5"/>
</g>
<!-- DeviceModule -->
<g id="node2" class="node">
<title>DeviceModule</title>
<polygon fill="#8dd3c7" stroke="black" points="489.69,-122 486.69,-126 465.69,-126 462.69,-122 390.31,-122 390.31,-86 489.69,-86 489.69,-122"/>
<text text-anchor="middle" x="440" y="-99.8" font-family="Times,serif" font-size="14.00">DeviceModule</text>
</g>
<!-- DeviceModule&#45;&gt;CertificateLogModule -->
<g id="edge2" class="edge">
<title>DeviceModule&#45;&gt;CertificateLogModule</title>
<path fill="none" stroke="black" d="M417,-122.11C417,-122.11 417,-140.99 417,-140.99"/>
<polygon fill="black" stroke="black" points="413.5,-140.99 417,-150.99 420.5,-140.99 413.5,-140.99"/>
</g>
<!-- OrganizationModule -->
<g id="node3" class="node">
<title>OrganizationModule</title>
<polygon fill="#8dd3c7" stroke="black" points="372.13,-122 369.13,-126 348.13,-126 345.13,-122 239.87,-122 239.87,-86 372.13,-86 372.13,-122"/>
<text text-anchor="middle" x="306" y="-99.8" font-family="Times,serif" font-size="14.00">OrganizationModule</text>
</g>
<!-- OrganizationModule&#45;&gt;CertificateLogModule -->
<g id="edge3" class="edge">
<title>OrganizationModule&#45;&gt;CertificateLogModule</title>
<path fill="none" stroke="black" d="M337.36,-122.11C337.36,-122.11 337.36,-140.99 337.36,-140.99"/>
<polygon fill="black" stroke="black" points="333.86,-140.99 337.36,-150.99 340.86,-140.99 333.86,-140.99"/>
</g>
<!-- CertificateLogService -->
<g id="node5" class="node">
<title>CertificateLogService</title>
<ellipse fill="#fdb462" stroke="black" cx="120" cy="-104" rx="96.1" ry="18"/>
<text text-anchor="middle" x="120" y="-99.8" font-family="Times,serif" font-size="14.00">CertificateLogService</text>
</g>
<!-- CertificateLogService&#45;&gt;CertificateLogModule -->
<g id="edge4" class="edge">
<title>CertificateLogService&#45;&gt;CertificateLogModule</title>
<path fill="none" stroke="black" d="M120,-122.11C120,-141.34 120,-169 120,-169 120,-169 292.19,-169 292.19,-169"/>
<polygon fill="black" stroke="black" points="292.19,-172.5 302.19,-169 292.19,-165.5 292.19,-172.5"/>
</g>
</g>
</svg>
