<?xml version="1.0" encoding="UTF-8" standalone="no"?>
<!DOCTYPE svg PUBLIC "-//W3C//DTD SVG 1.1//EN"
 "http://www.w3.org/Graphics/SVG/1.1/DTD/svg11.dtd">
<!-- Generated by graphviz version 2.47.0 (20210316.0004)
 -->
<!-- Title: dependencies Pages: 1 -->
<svg width="3015pt" height="211pt"
 viewBox="0.00 0.00 3015.00 211.00" xmlns="http://www.w3.org/2000/svg" xmlns:xlink="http://www.w3.org/1999/xlink">
<g id="graph0" class="graph" transform="scale(1 1) rotate(0) translate(4 207)">
<title>dependencies</title>
<polygon fill="white" stroke="transparent" points="-4,4 -4,-207 3011,-207 3011,4 -4,4"/>
<text text-anchor="start" x="1482.51" y="-42.4" font-family="Times-12" font-weight="bold" font-size="14.00">Legend</text>
<polygon fill="#ffffb3" stroke="transparent" points="1269.5,-10 1269.5,-30 1289.5,-30 1289.5,-10 1269.5,-10"/>
<text text-anchor="start" x="1293.13" y="-15.4" font-family="Times-12" font-size="14.00"> &#160;Declarations</text>
<polygon fill="#8dd3c7" stroke="transparent" points="1382.5,-10 1382.5,-30 1402.5,-30 1402.5,-10 1382.5,-10"/>
<text text-anchor="start" x="1406.23" y="-15.4" font-family="Times-12" font-size="14.00"> &#160;Module</text>
<polygon fill="#80b1d3" stroke="transparent" points="1468.5,-10 1468.5,-30 1488.5,-30 1488.5,-10 1468.5,-10"/>
<text text-anchor="start" x="1492.28" y="-15.4" font-family="Times-12" font-size="14.00"> &#160;Bootstrap</text>
<polygon fill="#fdb462" stroke="transparent" points="1565.5,-10 1565.5,-30 1585.5,-30 1585.5,-10 1565.5,-10"/>
<text text-anchor="start" x="1589.17" y="-15.4" font-family="Times-12" font-size="14.00"> &#160;Providers</text>
<polygon fill="#fb8072" stroke="transparent" points="1661.5,-10 1661.5,-30 1681.5,-30 1681.5,-10 1661.5,-10"/>
<text text-anchor="start" x="1685.23" y="-15.4" font-family="Times-12" font-size="14.00"> &#160;Exports</text>
<g id="clust1" class="cluster">
<title>cluster_DrecModule</title>
<polygon fill="none" stroke="black" stroke-dasharray="1,5" points="8,-70 8,-195 2999,-195 2999,-70 8,-70"/>
</g>
<g id="clust3" class="cluster">
<title>cluster_DrecModule_imports</title>
<polygon fill="none" stroke="black" points="352,-78 352,-130 2991,-130 2991,-78 352,-78"/>
</g>
<g id="clust6" class="cluster">
<title>cluster_DrecModule_providers</title>
<polygon fill="none" stroke="black" points="16,-78 16,-130 344,-130 344,-78 16,-78"/>
</g>
<!-- AccessControlLayerModuleServiceModule -->
<g id="node1" class="node">
<title>AccessControlLayerModuleServiceModule</title>
<polygon fill="#8dd3c7" stroke="black" points="2983.14,-122 2980.14,-126 2959.14,-126 2956.14,-122 2722.86,-122 2722.86,-86 2983.14,-86 2983.14,-122"/>
<text text-anchor="middle" x="2853" y="-99.8" font-family="Times,serif" font-size="14.00">AccessControlLayerModuleServiceModule</text>
</g>
<!-- DrecModule -->
<g id="node20" class="node">
<title>DrecModule</title>
<polygon fill="#8dd3c7" stroke="black" points="1533.25,-187 1530.25,-191 1509.25,-191 1506.25,-187 1446.75,-187 1446.75,-151 1533.25,-151 1533.25,-187"/>
<text text-anchor="middle" x="1490" y="-164.8" font-family="Times,serif" font-size="14.00">DrecModule</text>
</g>
<!-- AccessControlLayerModuleServiceModule&#45;&gt;DrecModule -->
<g id="edge1" class="edge">
<title>AccessControlLayerModuleServiceModule&#45;&gt;DrecModule</title>
<path fill="none" stroke="black" d="M2853,-122.15C2853,-145.76 2853,-184 2853,-184 2853,-184 1543.42,-184 1543.42,-184"/>
<polygon fill="black" stroke="black" points="1543.42,-180.5 1533.42,-184 1543.42,-187.5 1543.42,-180.5"/>
</g>
<!-- AdminModule -->
<g id="node2" class="node">
<title>AdminModule</title>
<polygon fill="#8dd3c7" stroke="black" points="2705.44,-122 2702.44,-126 2681.44,-126 2678.44,-122 2606.56,-122 2606.56,-86 2705.44,-86 2705.44,-122"/>
<text text-anchor="middle" x="2656" y="-99.8" font-family="Times,serif" font-size="14.00">AdminModule</text>
</g>
<!-- AdminModule&#45;&gt;DrecModule -->
<g id="edge2" class="edge">
<title>AdminModule&#45;&gt;DrecModule</title>
<path fill="none" stroke="black" d="M2656,-122.01C2656,-144.49 2656,-180 2656,-180 2656,-180 1543.58,-180 1543.58,-180"/>
<polygon fill="black" stroke="black" points="1543.58,-176.5 1533.58,-180 1543.58,-183.5 1543.58,-176.5"/>
</g>
<!-- AuthModule -->
<g id="node3" class="node">
<title>AuthModule</title>
<polygon fill="#8dd3c7" stroke="black" points="2588.55,-122 2585.55,-126 2564.55,-126 2561.55,-122 2501.45,-122 2501.45,-86 2588.55,-86 2588.55,-122"/>
<text text-anchor="middle" x="2545" y="-99.8" font-family="Times,serif" font-size="14.00">AuthModule</text>
</g>
<!-- AuthModule&#45;&gt;DrecModule -->
<g id="edge3" class="edge">
<title>AuthModule&#45;&gt;DrecModule</title>
<path fill="none" stroke="black" d="M2545,-122.04C2545,-143.66 2545,-177 2545,-177 2545,-177 1543.32,-177 1543.32,-177"/>
<polygon fill="black" stroke="black" points="1543.32,-173.5 1533.32,-177 1543.32,-180.5 1543.32,-173.5"/>
</g>
<!-- CertificateLogModule -->
<g id="node4" class="node">
<title>CertificateLogModule</title>
<polygon fill="#8dd3c7" stroke="black" points="2483.68,-122 2480.68,-126 2459.68,-126 2456.68,-122 2342.32,-122 2342.32,-86 2483.68,-86 2483.68,-122"/>
<text text-anchor="middle" x="2413" y="-99.8" font-family="Times,serif" font-size="14.00">CertificateLogModule</text>
</g>
<!-- CertificateLogModule&#45;&gt;DrecModule -->
<g id="edge4" class="edge">
<title>CertificateLogModule&#45;&gt;DrecModule</title>
<path fill="none" stroke="black" d="M2413,-122.13C2413,-142.57 2413,-173 2413,-173 2413,-173 1543.28,-173 1543.28,-173"/>
<polygon fill="black" stroke="black" points="1543.28,-169.5 1533.28,-173 1543.28,-176.5 1543.28,-169.5"/>
</g>
<!-- CountrycodeModule -->
<g id="node5" class="node">
<title>CountrycodeModule</title>
<polygon fill="#8dd3c7" stroke="black" points="2323.87,-122 2320.87,-126 2299.87,-126 2296.87,-122 2192.13,-122 2192.13,-86 2323.87,-86 2323.87,-122"/>
<text text-anchor="middle" x="2258" y="-99.8" font-family="Times,serif" font-size="14.00">CountrycodeModule</text>
</g>
<!-- CountrycodeModule&#45;&gt;DrecModule -->
<g id="edge5" class="edge">
<title>CountrycodeModule&#45;&gt;DrecModule</title>
<path fill="none" stroke="black" d="M2258,-122.11C2258,-141.34 2258,-169 2258,-169 2258,-169 1543.49,-169 1543.49,-169"/>
<polygon fill="black" stroke="black" points="1543.49,-165.5 1533.49,-169 1543.49,-172.5 1543.49,-165.5"/>
</g>
<!-- DeviceGroupModule -->
<g id="node6" class="node">
<title>DeviceGroupModule</title>
<polygon fill="#8dd3c7" stroke="black" points="2174.46,-122 2171.46,-126 2150.46,-126 2147.46,-122 2039.54,-122 2039.54,-86 2174.46,-86 2174.46,-122"/>
<text text-anchor="middle" x="2107" y="-99.8" font-family="Times,serif" font-size="14.00">DeviceGroupModule</text>
</g>
<!-- DeviceGroupModule&#45;&gt;DrecModule -->
<g id="edge6" class="edge">
<title>DeviceGroupModule&#45;&gt;DrecModule</title>
<path fill="none" stroke="black" d="M2107,-122.27C2107,-140.56 2107,-166 2107,-166 2107,-166 1543.39,-166 1543.39,-166"/>
<polygon fill="black" stroke="black" points="1543.39,-162.5 1533.39,-166 1543.39,-169.5 1543.39,-162.5"/>
</g>
<!-- DeviceModule -->
<g id="node7" class="node">
<title>DeviceModule</title>
<polygon fill="#8dd3c7" stroke="black" points="2021.69,-122 2018.69,-126 1997.69,-126 1994.69,-122 1922.31,-122 1922.31,-86 2021.69,-86 2021.69,-122"/>
<text text-anchor="middle" x="1972" y="-99.8" font-family="Times,serif" font-size="14.00">DeviceModule</text>
</g>
<!-- DeviceModule&#45;&gt;DrecModule -->
<g id="edge7" class="edge">
<title>DeviceModule&#45;&gt;DrecModule</title>
<path fill="none" stroke="black" d="M1972,-122.03C1972,-139.06 1972,-162 1972,-162 1972,-162 1543.62,-162 1543.62,-162"/>
<polygon fill="black" stroke="black" points="1543.62,-158.5 1533.62,-162 1543.62,-165.5 1543.62,-158.5"/>
</g>
<!-- EmailConfirmationModule -->
<g id="node8" class="node">
<title>EmailConfirmationModule</title>
<polygon fill="#8dd3c7" stroke="black" points="1904.42,-122 1901.42,-126 1880.42,-126 1877.42,-122 1735.58,-122 1735.58,-86 1904.42,-86 1904.42,-122"/>
<text text-anchor="middle" x="1820" y="-99.8" font-family="Times,serif" font-size="14.00">EmailConfirmationModule</text>
</g>
<!-- EmailConfirmationModule&#45;&gt;DrecModule -->
<g id="edge8" class="edge">
<title>EmailConfirmationModule&#45;&gt;DrecModule</title>
<path fill="none" stroke="black" d="M1820,-122.01C1820,-138.05 1820,-159 1820,-159 1820,-159 1543.48,-159 1543.48,-159"/>
<polygon fill="black" stroke="black" points="1543.48,-155.5 1533.48,-159 1543.48,-162.5 1543.48,-155.5"/>
</g>
<!-- FileModule -->
<g id="node9" class="node">
<title>FileModule</title>
<polygon fill="#8dd3c7" stroke="black" points="1717.83,-122 1714.83,-126 1693.83,-126 1690.83,-122 1636.17,-122 1636.17,-86 1717.83,-86 1717.83,-122"/>
<text text-anchor="middle" x="1677" y="-99.8" font-family="Times,serif" font-size="14.00">FileModule</text>
</g>
<!-- FileModule&#45;&gt;DrecModule -->
<g id="edge9" class="edge">
<title>FileModule&#45;&gt;DrecModule</title>
<path fill="none" stroke="black" d="M1677,-122.12C1677,-136.78 1677,-155 1677,-155 1677,-155 1543.37,-155 1543.37,-155"/>
<polygon fill="black" stroke="black" points="1543.37,-151.5 1533.37,-155 1543.37,-158.5 1543.37,-151.5"/>
</g>
<!-- IntegratorsModule -->
<g id="node10" class="node">
<title>IntegratorsModule</title>
<polygon fill="#8dd3c7" stroke="black" points="1618.19,-122 1615.19,-126 1594.19,-126 1591.19,-122 1497.81,-122 1497.81,-86 1618.19,-86 1618.19,-122"/>
<text text-anchor="middle" x="1558" y="-99.8" font-family="Times,serif" font-size="14.00">IntegratorsModule</text>
</g>
<!-- IntegratorsModule&#45;&gt;DrecModule -->
<g id="edge10" class="edge">
<title>IntegratorsModule&#45;&gt;DrecModule</title>
<path fill="none" stroke="black" d="M1515.64,-122.11C1515.64,-122.11 1515.64,-140.99 1515.64,-140.99"/>
<polygon fill="black" stroke="black" points="1512.14,-140.99 1515.64,-150.99 1519.14,-140.99 1512.14,-140.99"/>
</g>
<!-- InvitationModule -->
<g id="node11" class="node">
<title>InvitationModule</title>
<polygon fill="#8dd3c7" stroke="black" points="1479.99,-122 1476.99,-126 1455.99,-126 1452.99,-122 1366.01,-122 1366.01,-86 1479.99,-86 1479.99,-122"/>
<text text-anchor="middle" x="1423" y="-99.8" font-family="Times,serif" font-size="14.00">InvitationModule</text>
</g>
<!-- InvitationModule&#45;&gt;DrecModule -->
<g id="edge11" class="edge">
<title>InvitationModule&#45;&gt;DrecModule</title>
<path fill="none" stroke="black" d="M1463.31,-122.11C1463.31,-122.11 1463.31,-140.99 1463.31,-140.99"/>
<polygon fill="black" stroke="black" points="1459.81,-140.99 1463.31,-150.99 1466.81,-140.99 1459.81,-140.99"/>
</g>
<!-- IssuerModule -->
<g id="node12" class="node">
<title>IssuerModule</title>
<polygon fill="#8dd3c7" stroke="black" points="1348.47,-122 1345.47,-126 1324.47,-126 1321.47,-122 1255.53,-122 1255.53,-86 1348.47,-86 1348.47,-122"/>
<text text-anchor="middle" x="1302" y="-99.8" font-family="Times,serif" font-size="14.00">IssuerModule</text>
</g>
<!-- IssuerModule&#45;&gt;DrecModule -->
<g id="edge12" class="edge">
<title>IssuerModule&#45;&gt;DrecModule</title>
<path fill="none" stroke="black" d="M1302,-122.12C1302,-136.78 1302,-155 1302,-155 1302,-155 1436.4,-155 1436.4,-155"/>
<polygon fill="black" stroke="black" points="1436.4,-158.5 1446.4,-155 1436.4,-151.5 1436.4,-158.5"/>
</g>
<!-- MailModule -->
<g id="node13" class="node">
<title>MailModule</title>
<polygon fill="#8dd3c7" stroke="black" points="1237.99,-122 1234.99,-126 1213.99,-126 1210.99,-122 1152.01,-122 1152.01,-86 1237.99,-86 1237.99,-122"/>
<text text-anchor="middle" x="1195" y="-99.8" font-family="Times,serif" font-size="14.00">MailModule</text>
</g>
<!-- MailModule&#45;&gt;DrecModule -->
<g id="edge13" class="edge">
<title>MailModule&#45;&gt;DrecModule</title>
<path fill="none" stroke="black" d="M1195,-122.01C1195,-138.05 1195,-159 1195,-159 1195,-159 1436.47,-159 1436.47,-159"/>
<polygon fill="black" stroke="black" points="1436.47,-162.5 1446.47,-159 1436.47,-155.5 1436.47,-162.5"/>
</g>
<!-- OrganizationModule -->
<g id="node14" class="node">
<title>OrganizationModule</title>
<polygon fill="#8dd3c7" stroke="black" points="1134.13,-122 1131.13,-126 1110.13,-126 1107.13,-122 1001.87,-122 1001.87,-86 1134.13,-86 1134.13,-122"/>
<text text-anchor="middle" x="1068" y="-99.8" font-family="Times,serif" font-size="14.00">OrganizationModule</text>
</g>
<!-- OrganizationModule&#45;&gt;DrecModule -->
<g id="edge14" class="edge">
<title>OrganizationModule&#45;&gt;DrecModule</title>
<path fill="none" stroke="black" d="M1068,-122.03C1068,-139.06 1068,-162 1068,-162 1068,-162 1436.43,-162 1436.43,-162"/>
<polygon fill="black" stroke="black" points="1436.43,-165.5 1446.43,-162 1436.43,-158.5 1436.43,-165.5"/>
</g>
<!-- PermissionModule -->
<g id="node15" class="node">
<title>PermissionModule</title>
<polygon fill="#8dd3c7" stroke="black" points="983.77,-122 980.77,-126 959.77,-126 956.77,-122 862.23,-122 862.23,-86 983.77,-86 983.77,-122"/>
<text text-anchor="middle" x="923" y="-99.8" font-family="Times,serif" font-size="14.00">PermissionModule</text>
</g>
<!-- PermissionModule&#45;&gt;DrecModule -->
<g id="edge15" class="edge">
<title>PermissionModule&#45;&gt;DrecModule</title>
<path fill="none" stroke="black" d="M923,-122.27C923,-140.56 923,-166 923,-166 923,-166 1436.45,-166 1436.45,-166"/>
<polygon fill="black" stroke="black" points="1436.45,-169.5 1446.45,-166 1436.45,-162.5 1436.45,-169.5"/>
</g>
<!-- ReadsModule -->
<g id="node16" class="node">
<title>ReadsModule</title>
<polygon fill="#8dd3c7" stroke="black" points="843.76,-122 840.76,-126 819.76,-126 816.76,-122 750.24,-122 750.24,-86 843.76,-86 843.76,-122"/>
<text text-anchor="middle" x="797" y="-99.8" font-family="Times,serif" font-size="14.00">ReadsModule</text>
</g>
<!-- ReadsModule&#45;&gt;DrecModule -->
<g id="edge16" class="edge">
<title>ReadsModule&#45;&gt;DrecModule</title>
<path fill="none" stroke="black" d="M797,-122.11C797,-141.34 797,-169 797,-169 797,-169 1436.65,-169 1436.65,-169"/>
<polygon fill="black" stroke="black" points="1436.65,-172.5 1446.65,-169 1436.65,-165.5 1436.65,-172.5"/>
</g>
<!-- SdgbenefitModule -->
<g id="node17" class="node">
<title>SdgbenefitModule</title>
<polygon fill="#8dd3c7" stroke="black" points="732.2,-122 729.2,-126 708.2,-126 705.2,-122 611.8,-122 611.8,-86 732.2,-86 732.2,-122"/>
<text text-anchor="middle" x="672" y="-99.8" font-family="Times,serif" font-size="14.00">SdgbenefitModule</text>
</g>
<!-- SdgbenefitModule&#45;&gt;DrecModule -->
<g id="edge17" class="edge">
<title>SdgbenefitModule&#45;&gt;DrecModule</title>
<path fill="none" stroke="black" d="M672,-122.13C672,-142.57 672,-173 672,-173 672,-173 1436.6,-173 1436.6,-173"/>
<polygon fill="black" stroke="black" points="1436.6,-176.5 1446.6,-173 1436.6,-169.5 1436.6,-176.5"/>
</g>
<!-- UserModule -->
<g id="node18" class="node">
<title>UserModule</title>
<polygon fill="#8dd3c7" stroke="black" points="593.98,-122 590.98,-126 569.98,-126 566.98,-122 508.02,-122 508.02,-86 593.98,-86 593.98,-122"/>
<text text-anchor="middle" x="551" y="-99.8" font-family="Times,serif" font-size="14.00">UserModule</text>
</g>
<!-- UserModule&#45;&gt;DrecModule -->
<g id="edge18" class="edge">
<title>UserModule&#45;&gt;DrecModule</title>
<path fill="none" stroke="black" d="M551,-122.04C551,-143.66 551,-177 551,-177 551,-177 1436.59,-177 1436.59,-177"/>
<polygon fill="black" stroke="black" points="1436.59,-180.5 1446.59,-177 1436.59,-173.5 1436.59,-180.5"/>
</g>
<!-- YieldConfigModule -->
<g id="node19" class="node">
<title>YieldConfigModule</title>
<polygon fill="#8dd3c7" stroke="black" points="489.54,-122 486.54,-126 465.54,-126 462.54,-122 360.46,-122 360.46,-86 489.54,-86 489.54,-122"/>
<text text-anchor="middle" x="425" y="-99.8" font-family="Times,serif" font-size="14.00">YieldConfigModule</text>
</g>
<!-- YieldConfigModule&#45;&gt;DrecModule -->
<g id="edge19" class="edge">
<title>YieldConfigModule&#45;&gt;DrecModule</title>
<path fill="none" stroke="black" d="M425,-122.01C425,-144.49 425,-180 425,-180 425,-180 1436.6,-180 1436.6,-180"/>
<polygon fill="black" stroke="black" points="1436.6,-183.5 1446.6,-180 1436.6,-176.5 1436.6,-183.5"/>
</g>
<!-- OnApplicationBootstrapHookService -->
<g id="node21" class="node">
<title>OnApplicationBootstrapHookService</title>
<ellipse fill="#fdb462" stroke="black" cx="180" cy="-104" rx="156.28" ry="18"/>
<text text-anchor="middle" x="180" y="-99.8" font-family="Times,serif" font-size="14.00">OnApplicationBootstrapHookService</text>
</g>
<!-- OnApplicationBootstrapHookService&#45;&gt;DrecModule -->
<g id="edge20" class="edge">
<title>OnApplicationBootstrapHookService&#45;&gt;DrecModule</title>
<path fill="none" stroke="black" d="M180,-122.15C180,-145.76 180,-184 180,-184 180,-184 1436.41,-184 1436.41,-184"/>
<polygon fill="black" stroke="black" points="1436.41,-187.5 1446.41,-184 1436.41,-180.5 1436.41,-187.5"/>
</g>
</g>
</svg>
