<?xml version="1.0" encoding="UTF-8" standalone="no"?>
<!DOCTYPE svg PUBLIC "-//W3C//DTD SVG 1.1//EN"
 "http://www.w3.org/Graphics/SVG/1.1/DTD/svg11.dtd">
<!-- Generated by graphviz version 2.47.0 (20210316.0004)
 -->
<!-- Title: dependencies Pages: 1 -->
<svg width="644pt" height="284pt"
 viewBox="0.00 0.00 644.00 284.00" xmlns="http://www.w3.org/2000/svg" xmlns:xlink="http://www.w3.org/1999/xlink">
<g id="graph0" class="graph" transform="scale(1 1) rotate(0) translate(4 280)">
<title>dependencies</title>
<polygon fill="white" stroke="transparent" points="-4,4 -4,-280 640,-280 640,4 -4,4"/>
<text text-anchor="start" x="297.01" y="-42.4" font-family="Times-12" font-weight="bold" font-size="14.00">Legend</text>
<polygon fill="#ffffb3" stroke="transparent" points="84,-10 84,-30 104,-30 104,-10 84,-10"/>
<text text-anchor="start" x="107.63" y="-15.4" font-family="Times-12" font-size="14.00"> &#160;Declarations</text>
<polygon fill="#8dd3c7" stroke="transparent" points="197,-10 197,-30 217,-30 217,-10 197,-10"/>
<text text-anchor="start" x="220.73" y="-15.4" font-family="Times-12" font-size="14.00"> &#160;Module</text>
<polygon fill="#80b1d3" stroke="transparent" points="283,-10 283,-30 303,-30 303,-10 283,-10"/>
<text text-anchor="start" x="306.78" y="-15.4" font-family="Times-12" font-size="14.00"> &#160;Bootstrap</text>
<polygon fill="#fdb462" stroke="transparent" points="380,-10 380,-30 400,-30 400,-10 380,-10"/>
<text text-anchor="start" x="403.67" y="-15.4" font-family="Times-12" font-size="14.00"> &#160;Providers</text>
<polygon fill="#fb8072" stroke="transparent" points="476,-10 476,-30 496,-30 496,-10 476,-10"/>
<text text-anchor="start" x="499.73" y="-15.4" font-family="Times-12" font-size="14.00"> &#160;Exports</text>
<g id="clust1" class="cluster">
<title>cluster_DeviceGroupModule</title>
<polygon fill="none" stroke="black" stroke-dasharray="1,5" points="8,-70 8,-268 628,-268 628,-70 8,-70"/>
</g>
<g id="clust3" class="cluster">
<title>cluster_DeviceGroupModule_imports</title>
<polygon fill="none" stroke="black" points="224,-78 224,-130 620,-130 620,-78 224,-78"/>
</g>
<g id="clust6" class="cluster">
<title>cluster_DeviceGroupModule_providers</title>
<polygon fill="none" stroke="black" points="16,-78 16,-130 216,-130 216,-78 16,-78"/>
</g>
<g id="clust4" class="cluster">
<title>cluster_DeviceGroupModule_exports</title>
<polygon fill="none" stroke="black" points="295,-208 295,-260 447,-260 447,-208 295,-208"/>
</g>
<!-- FileModule -->
<g id="node1" class="node">
<title>FileModule</title>
<polygon fill="#8dd3c7" stroke="black" points="611.83,-122 608.83,-126 587.83,-126 584.83,-122 530.17,-122 530.17,-86 611.83,-86 611.83,-122"/>
<text text-anchor="middle" x="571" y="-99.8" font-family="Times,serif" font-size="14.00">FileModule</text>
</g>
<!-- DeviceGroupModule -->
<g id="node4" class="node">
<title>DeviceGroupModule</title>
<polygon fill="#8dd3c7" stroke="black" points="438.46,-187 435.46,-191 414.46,-191 411.46,-187 303.54,-187 303.54,-151 438.46,-151 438.46,-187"/>
<text text-anchor="middle" x="371" y="-164.8" font-family="Times,serif" font-size="14.00">DeviceGroupModule</text>
</g>
<!-- FileModule&#45;&gt;DeviceGroupModule -->
<g id="edge1" class="edge">
<title>FileModule&#45;&gt;DeviceGroupModule</title>
<path fill="none" stroke="black" d="M571,-122.11C571,-141.34 571,-169 571,-169 571,-169 448.71,-169 448.71,-169"/>
<polygon fill="black" stroke="black" points="448.71,-165.5 438.71,-169 448.71,-172.5 448.71,-165.5"/>
</g>
<!-- OrganizationModule -->
<g id="node2" class="node">
<title>OrganizationModule</title>
<polygon fill="#8dd3c7" stroke="black" points="512.13,-122 509.13,-126 488.13,-126 485.13,-122 379.87,-122 379.87,-86 512.13,-86 512.13,-122"/>
<text text-anchor="middle" x="446" y="-99.8" font-family="Times,serif" font-size="14.00">OrganizationModule</text>
</g>
<!-- OrganizationModule&#45;&gt;DeviceGroupModule -->
<g id="edge2" class="edge">
<title>OrganizationModule&#45;&gt;DeviceGroupModule</title>
<path fill="none" stroke="black" d="M409.08,-122.11C409.08,-122.11 409.08,-140.99 409.08,-140.99"/>
<polygon fill="black" stroke="black" points="405.58,-140.99 409.08,-150.99 412.58,-140.99 405.58,-140.99"/>
</g>
<!-- YieldConfigModule -->
<g id="node3" class="node">
<title>YieldConfigModule</title>
<polygon fill="#8dd3c7" stroke="black" points="361.54,-122 358.54,-126 337.54,-126 334.54,-122 232.46,-122 232.46,-86 361.54,-86 361.54,-122"/>
<text text-anchor="middle" x="297" y="-99.8" font-family="Times,serif" font-size="14.00">YieldConfigModule</text>
</g>
<!-- YieldConfigModule&#45;&gt;DeviceGroupModule -->
<g id="edge3" class="edge">
<title>YieldConfigModule&#45;&gt;DeviceGroupModule</title>
<path fill="none" stroke="black" d="M332.65,-122.11C332.65,-122.11 332.65,-140.99 332.65,-140.99"/>
<polygon fill="black" stroke="black" points="329.15,-140.99 332.65,-150.99 336.15,-140.99 329.15,-140.99"/>
</g>
<!-- DeviceGroupService  -->
<g id="node5" class="node">
<title>DeviceGroupService </title>
<polygon fill="#fb8072" stroke="black" points="439.39,-252 302.61,-252 302.61,-216 439.39,-216 439.39,-252"/>
<text text-anchor="middle" x="371" y="-229.8" font-family="Times,serif" font-size="14.00">DeviceGroupService </text>
</g>
<!-- DeviceGroupModule&#45;&gt;DeviceGroupService  -->
<g id="edge4" class="edge">
<title>DeviceGroupModule&#45;&gt;DeviceGroupService </title>
<path fill="none" stroke="black" stroke-dasharray="5,2" d="M371,-187.11C371,-187.11 371,-205.99 371,-205.99"/>
<polygon fill="black" stroke="black" points="367.5,-205.99 371,-215.99 374.5,-205.99 367.5,-205.99"/>
</g>
<!-- DeviceGroupService -->
<g id="node6" class="node">
<title>DeviceGroupService</title>
<ellipse fill="#fdb462" stroke="black" cx="116" cy="-104" rx="92.01" ry="18"/>
<text text-anchor="middle" x="116" y="-99.8" font-family="Times,serif" font-size="14.00">DeviceGroupService</text>
</g>
<!-- DeviceGroupService&#45;&gt;DeviceGroupModule -->
<g id="edge5" class="edge">
<title>DeviceGroupService&#45;&gt;DeviceGroupModule</title>
<path fill="none" stroke="black" d="M116,-122.11C116,-141.34 116,-169 116,-169 116,-169 293.33,-169 293.33,-169"/>
<polygon fill="black" stroke="black" points="293.33,-172.5 303.33,-169 293.33,-165.5 293.33,-172.5"/>
</g>
</g>
</svg>
