<?xml version="1.0" encoding="UTF-8" standalone="no"?>
<!DOCTYPE svg PUBLIC "-//W3C//DTD SVG 1.1//EN"
 "http://www.w3.org/Graphics/SVG/1.1/DTD/svg11.dtd">
<!-- Generated by graphviz version 2.47.0 (20210316.0004)
 -->
<!-- Title: dependencies Pages: 1 -->
<svg width="714pt" height="284pt"
 viewBox="0.00 0.00 714.00 284.00" xmlns="http://www.w3.org/2000/svg" xmlns:xlink="http://www.w3.org/1999/xlink">
<g id="graph0" class="graph" transform="scale(1 1) rotate(0) translate(4 280)">
<title>dependencies</title>
<polygon fill="white" stroke="transparent" points="-4,4 -4,-280 710,-280 710,4 -4,4"/>
<text text-anchor="start" x="332.01" y="-42.4" font-family="Times-12" font-weight="bold" font-size="14.00">Legend</text>
<polygon fill="#ffffb3" stroke="transparent" points="119,-10 119,-30 139,-30 139,-10 119,-10"/>
<text text-anchor="start" x="142.63" y="-15.4" font-family="Times-12" font-size="14.00"> &#160;Declarations</text>
<polygon fill="#8dd3c7" stroke="transparent" points="232,-10 232,-30 252,-30 252,-10 232,-10"/>
<text text-anchor="start" x="255.73" y="-15.4" font-family="Times-12" font-size="14.00"> &#160;Module</text>
<polygon fill="#80b1d3" stroke="transparent" points="318,-10 318,-30 338,-30 338,-10 318,-10"/>
<text text-anchor="start" x="341.78" y="-15.4" font-family="Times-12" font-size="14.00"> &#160;Bootstrap</text>
<polygon fill="#fdb462" stroke="transparent" points="415,-10 415,-30 435,-30 435,-10 415,-10"/>
<text text-anchor="start" x="438.67" y="-15.4" font-family="Times-12" font-size="14.00"> &#160;Providers</text>
<polygon fill="#fb8072" stroke="transparent" points="511,-10 511,-30 531,-30 531,-10 511,-10"/>
<text text-anchor="start" x="534.73" y="-15.4" font-family="Times-12" font-size="14.00"> &#160;Exports</text>
<g id="clust1" class="cluster">
<title>cluster_ReadsModule</title>
<polygon fill="none" stroke="black" stroke-dasharray="1,5" points="8,-70 8,-268 698,-268 698,-70 8,-70"/>
</g>
<g id="clust3" class="cluster">
<title>cluster_ReadsModule_imports</title>
<polygon fill="none" stroke="black" points="168,-78 168,-130 690,-130 690,-78 168,-78"/>
</g>
<g id="clust4" class="cluster">
<title>cluster_ReadsModule_exports</title>
<polygon fill="none" stroke="black" points="290,-208 290,-260 402,-260 402,-208 290,-208"/>
</g>
<g id="clust6" class="cluster">
<title>cluster_ReadsModule_providers</title>
<polygon fill="none" stroke="black" points="16,-78 16,-130 160,-130 160,-78 16,-78"/>
</g>
<!-- DeviceGroupModule -->
<g id="node1" class="node">
<title>DeviceGroupModule</title>
<polygon fill="#8dd3c7" stroke="black" points="682.46,-122 679.46,-126 658.46,-126 655.46,-122 547.54,-122 547.54,-86 682.46,-86 682.46,-122"/>
<text text-anchor="middle" x="615" y="-99.8" font-family="Times,serif" font-size="14.00">DeviceGroupModule</text>
</g>
<!-- ReadsModule -->
<g id="node5" class="node">
<title>ReadsModule</title>
<polygon fill="#8dd3c7" stroke="black" points="392.76,-187 389.76,-191 368.76,-191 365.76,-187 299.24,-187 299.24,-151 392.76,-151 392.76,-187"/>
<text text-anchor="middle" x="346" y="-164.8" font-family="Times,serif" font-size="14.00">ReadsModule</text>
</g>
<!-- DeviceGroupModule&#45;&gt;ReadsModule -->
<g id="edge1" class="edge">
<title>DeviceGroupModule&#45;&gt;ReadsModule</title>
<path fill="none" stroke="black" d="M615,-122.28C615,-143.32 615,-175 615,-175 615,-175 402.86,-175 402.86,-175"/>
<polygon fill="black" stroke="black" points="402.86,-171.5 392.86,-175 402.86,-178.5 402.86,-171.5"/>
</g>
<!-- DeviceModule -->
<g id="node2" class="node">
<title>DeviceModule</title>
<polygon fill="#8dd3c7" stroke="black" points="529.69,-122 526.69,-126 505.69,-126 502.69,-122 430.31,-122 430.31,-86 529.69,-86 529.69,-122"/>
<text text-anchor="middle" x="480" y="-99.8" font-family="Times,serif" font-size="14.00">DeviceModule</text>
</g>
<!-- DeviceModule&#45;&gt;ReadsModule -->
<g id="edge2" class="edge">
<title>DeviceModule&#45;&gt;ReadsModule</title>
<path fill="none" stroke="black" d="M480,-122.02C480,-139.37 480,-163 480,-163 480,-163 402.87,-163 402.87,-163"/>
<polygon fill="black" stroke="black" points="402.87,-159.5 392.87,-163 402.87,-166.5 402.87,-159.5"/>
</g>
<!-- OrganizationModule -->
<g id="node3" class="node">
<title>OrganizationModule</title>
<polygon fill="#8dd3c7" stroke="black" points="412.13,-122 409.13,-126 388.13,-126 385.13,-122 279.87,-122 279.87,-86 412.13,-86 412.13,-122"/>
<text text-anchor="middle" x="346" y="-99.8" font-family="Times,serif" font-size="14.00">OrganizationModule</text>
</g>
<!-- OrganizationModule&#45;&gt;ReadsModule -->
<g id="edge3" class="edge">
<title>OrganizationModule&#45;&gt;ReadsModule</title>
<path fill="none" stroke="black" d="M346,-122.11C346,-122.11 346,-140.99 346,-140.99"/>
<polygon fill="black" stroke="black" points="342.5,-140.99 346,-150.99 349.5,-140.99 342.5,-140.99"/>
</g>
<!-- UserModule -->
<g id="node4" class="node">
<title>UserModule</title>
<polygon fill="#8dd3c7" stroke="black" points="261.98,-122 258.98,-126 237.98,-126 234.98,-122 176.02,-122 176.02,-86 261.98,-86 261.98,-122"/>
<text text-anchor="middle" x="219" y="-99.8" font-family="Times,serif" font-size="14.00">UserModule</text>
</g>
<!-- UserModule&#45;&gt;ReadsModule -->
<g id="edge4" class="edge">
<title>UserModule&#45;&gt;ReadsModule</title>
<path fill="none" stroke="black" d="M219,-122.02C219,-139.37 219,-163 219,-163 219,-163 289.07,-163 289.07,-163"/>
<polygon fill="black" stroke="black" points="289.07,-166.5 299.07,-163 289.07,-159.5 289.07,-166.5"/>
</g>
<!-- ReadsService  -->
<g id="node6" class="node">
<title>ReadsService </title>
<polygon fill="#fb8072" stroke="black" points="393.69,-252 298.31,-252 298.31,-216 393.69,-216 393.69,-252"/>
<text text-anchor="middle" x="346" y="-229.8" font-family="Times,serif" font-size="14.00">ReadsService </text>
</g>
<!-- ReadsModule&#45;&gt;ReadsService  -->
<g id="edge5" class="edge">
<title>ReadsModule&#45;&gt;ReadsService </title>
<path fill="none" stroke="black" stroke-dasharray="5,2" d="M346,-187.11C346,-187.11 346,-205.99 346,-205.99"/>
<polygon fill="black" stroke="black" points="342.5,-205.99 346,-215.99 349.5,-205.99 342.5,-205.99"/>
</g>
<!-- ReadsService -->
<g id="node7" class="node">
<title>ReadsService</title>
<ellipse fill="#fdb462" stroke="black" cx="88" cy="-104" rx="63.68" ry="18"/>
<text text-anchor="middle" x="88" y="-99.8" font-family="Times,serif" font-size="14.00">ReadsService</text>
</g>
<!-- ReadsService&#45;&gt;ReadsModule -->
<g id="edge6" class="edge">
<title>ReadsService&#45;&gt;ReadsModule</title>
<path fill="none" stroke="black" d="M88,-122.28C88,-143.32 88,-175 88,-175 88,-175 288.98,-175 288.98,-175"/>
<polygon fill="black" stroke="black" points="288.98,-178.5 298.98,-175 288.98,-171.5 288.98,-178.5"/>
</g>
</g>
</svg>
