<?xml version="1.0" encoding="UTF-8" standalone="no"?>
<!DOCTYPE svg PUBLIC "-//W3C//DTD SVG 1.1//EN"
 "http://www.w3.org/Graphics/SVG/1.1/DTD/svg11.dtd">
<!-- Generated by graphviz version 2.47.0 (20210316.0004)
 -->
<!-- Title: dependencies Pages: 1 -->
<svg width="714pt" height="284pt"
 viewBox="0.00 0.00 714.00 284.00" xmlns="http://www.w3.org/2000/svg" xmlns:xlink="http://www.w3.org/1999/xlink">
<g id="graph0" class="graph" transform="scale(1 1) rotate(0) translate(4 280)">
<title>dependencies</title>
<polygon fill="white" stroke="transparent" points="-4,4 -4,-280 710,-280 710,4 -4,4"/>
<text text-anchor="start" x="332.01" y="-42.4" font-family="Times-12" font-weight="bold" font-size="14.00">Legend</text>
<polygon fill="#ffffb3" stroke="transparent" points="119,-10 119,-30 139,-30 139,-10 119,-10"/>
<text text-anchor="start" x="142.63" y="-15.4" font-family="Times-12" font-size="14.00"> &#160;Declarations</text>
<polygon fill="#8dd3c7" stroke="transparent" points="232,-10 232,-30 252,-30 252,-10 232,-10"/>
<text text-anchor="start" x="255.73" y="-15.4" font-family="Times-12" font-size="14.00"> &#160;Module</text>
<polygon fill="#80b1d3" stroke="transparent" points="318,-10 318,-30 338,-30 338,-10 318,-10"/>
<text text-anchor="start" x="341.78" y="-15.4" font-family="Times-12" font-size="14.00"> &#160;Bootstrap</text>
<polygon fill="#fdb462" stroke="transparent" points="415,-10 415,-30 435,-30 435,-10 415,-10"/>
<text text-anchor="start" x="438.67" y="-15.4" font-family="Times-12" font-size="14.00"> &#160;Providers</text>
<polygon fill="#fb8072" stroke="transparent" points="511,-10 511,-30 531,-30 531,-10 511,-10"/>
<text text-anchor="start" x="534.73" y="-15.4" font-family="Times-12" font-size="14.00"> &#160;Exports</text>
<g id="clust1" class="cluster">
<title>cluster_ReadsModule</title>
<polygon fill="none" stroke="black" stroke-dasharray="1,5" points="8,-70 8,-268 698,-268 698,-70 8,-70"/>
</g>
<g id="clust6" class="cluster">
<title>cluster_ReadsModule_providers</title>
<polygon fill="none" stroke="black" points="546,-78 546,-130 690,-130 690,-78 546,-78"/>
</g>
<g id="clust3" class="cluster">
<title>cluster_ReadsModule_imports</title>
<polygon fill="none" stroke="black" points="16,-78 16,-130 538,-130 538,-78 16,-78"/>
</g>
<g id="clust4" class="cluster">
<title>cluster_ReadsModule_exports</title>
<polygon fill="none" stroke="black" points="272,-208 272,-260 384,-260 384,-208 272,-208"/>
</g>
<!-- DeviceGroupModule -->
<g id="node1" class="node">
<title>DeviceGroupModule</title>
<polygon fill="#8dd3c7" stroke="black" points="530.46,-122 527.46,-126 506.46,-126 503.46,-122 395.54,-122 395.54,-86 530.46,-86 530.46,-122"/>
<text text-anchor="middle" x="463" y="-99.8" font-family="Times,serif" font-size="14.00">DeviceGroupModule</text>
</g>
<!-- ReadsModule -->
<g id="node5" class="node">
<title>ReadsModule</title>
<polygon fill="#8dd3c7" stroke="black" points="374.76,-187 371.76,-191 350.76,-191 347.76,-187 281.24,-187 281.24,-151 374.76,-151 374.76,-187"/>
<text text-anchor="middle" x="328" y="-164.8" font-family="Times,serif" font-size="14.00">ReadsModule</text>
</g>
<!-- DeviceGroupModule&#45;&gt;ReadsModule -->
<g id="edge1" class="edge">
<title>DeviceGroupModule&#45;&gt;ReadsModule</title>
<path fill="none" stroke="black" d="M463,-122.02C463,-139.37 463,-163 463,-163 463,-163 384.84,-163 384.84,-163"/>
<polygon fill="black" stroke="black" points="384.84,-159.5 374.84,-163 384.84,-166.5 384.84,-159.5"/>
</g>
<!-- DeviceModule -->
<g id="node2" class="node">
<title>DeviceModule</title>
<polygon fill="#8dd3c7" stroke="black" points="377.69,-122 374.69,-126 353.69,-126 350.69,-122 278.31,-122 278.31,-86 377.69,-86 377.69,-122"/>
<text text-anchor="middle" x="328" y="-99.8" font-family="Times,serif" font-size="14.00">DeviceModule</text>
</g>
<!-- DeviceModule&#45;&gt;ReadsModule -->
<g id="edge2" class="edge">
<title>DeviceModule&#45;&gt;ReadsModule</title>
<path fill="none" stroke="black" d="M328,-122.11C328,-122.11 328,-140.99 328,-140.99"/>
<polygon fill="black" stroke="black" points="324.5,-140.99 328,-150.99 331.5,-140.99 324.5,-140.99"/>
</g>
<!-- OrganizationModule -->
<g id="node3" class="node">
<title>OrganizationModule</title>
<polygon fill="#8dd3c7" stroke="black" points="260.13,-122 257.13,-126 236.13,-126 233.13,-122 127.87,-122 127.87,-86 260.13,-86 260.13,-122"/>
<text text-anchor="middle" x="194" y="-99.8" font-family="Times,serif" font-size="14.00">OrganizationModule</text>
</g>
<!-- OrganizationModule&#45;&gt;ReadsModule -->
<g id="edge3" class="edge">
<title>OrganizationModule&#45;&gt;ReadsModule</title>
<path fill="none" stroke="black" d="M194,-122.02C194,-139.37 194,-163 194,-163 194,-163 271.13,-163 271.13,-163"/>
<polygon fill="black" stroke="black" points="271.13,-166.5 281.13,-163 271.13,-159.5 271.13,-166.5"/>
</g>
<!-- UserModule -->
<g id="node4" class="node">
<title>UserModule</title>
<polygon fill="#8dd3c7" stroke="black" points="109.98,-122 106.98,-126 85.98,-126 82.98,-122 24.02,-122 24.02,-86 109.98,-86 109.98,-122"/>
<text text-anchor="middle" x="67" y="-99.8" font-family="Times,serif" font-size="14.00">UserModule</text>
</g>
<!-- UserModule&#45;&gt;ReadsModule -->
<g id="edge4" class="edge">
<title>UserModule&#45;&gt;ReadsModule</title>
<path fill="none" stroke="black" d="M67,-122.28C67,-143.32 67,-175 67,-175 67,-175 271.04,-175 271.04,-175"/>
<polygon fill="black" stroke="black" points="271.04,-178.5 281.04,-175 271.04,-171.5 271.04,-178.5"/>
</g>
<!-- ReadsService  -->
<g id="node6" class="node">
<title>ReadsService </title>
<polygon fill="#fb8072" stroke="black" points="375.69,-252 280.31,-252 280.31,-216 375.69,-216 375.69,-252"/>
<text text-anchor="middle" x="328" y="-229.8" font-family="Times,serif" font-size="14.00">ReadsService </text>
</g>
<!-- ReadsModule&#45;&gt;ReadsService  -->
<g id="edge5" class="edge">
<title>ReadsModule&#45;&gt;ReadsService </title>
<path fill="none" stroke="black" stroke-dasharray="5,2" d="M328,-187.11C328,-187.11 328,-205.99 328,-205.99"/>
<polygon fill="black" stroke="black" points="324.5,-205.99 328,-215.99 331.5,-205.99 324.5,-205.99"/>
</g>
<!-- ReadsService -->
<g id="node7" class="node">
<title>ReadsService</title>
<ellipse fill="#fdb462" stroke="black" cx="618" cy="-104" rx="63.68" ry="18"/>
<text text-anchor="middle" x="618" y="-99.8" font-family="Times,serif" font-size="14.00">ReadsService</text>
</g>
<!-- ReadsService&#45;&gt;ReadsModule -->
<g id="edge6" class="edge">
<title>ReadsService&#45;&gt;ReadsModule</title>
<path fill="none" stroke="black" d="M618,-122.28C618,-143.32 618,-175 618,-175 618,-175 384.92,-175 384.92,-175"/>
<polygon fill="black" stroke="black" points="384.92,-171.5 374.92,-175 384.92,-178.5 384.92,-171.5"/>
</g>
</g>
</svg>
