<?xml version="1.0" encoding="UTF-8" standalone="no"?>
<!DOCTYPE svg PUBLIC "-//W3C//DTD SVG 1.1//EN"
 "http://www.w3.org/Graphics/SVG/1.1/DTD/svg11.dtd">
<!-- Generated by graphviz version 2.47.0 (20210316.0004)
 -->
<!-- Title: dependencies Pages: 1 -->
<svg width="504pt" height="284pt"
 viewBox="0.00 0.00 504.00 284.00" xmlns="http://www.w3.org/2000/svg" xmlns:xlink="http://www.w3.org/1999/xlink">
<g id="graph0" class="graph" transform="scale(1 1) rotate(0) translate(4 280)">
<title>dependencies</title>
<polygon fill="white" stroke="transparent" points="-4,4 -4,-280 500,-280 500,4 -4,4"/>
<text text-anchor="start" x="227.01" y="-42.4" font-family="Times-12" font-weight="bold" font-size="14.00">Legend</text>
<polygon fill="#ffffb3" stroke="transparent" points="14,-10 14,-30 34,-30 34,-10 14,-10"/>
<text text-anchor="start" x="37.63" y="-15.4" font-family="Times-12" font-size="14.00"> &#160;Declarations</text>
<polygon fill="#8dd3c7" stroke="transparent" points="127,-10 127,-30 147,-30 147,-10 127,-10"/>
<text text-anchor="start" x="150.73" y="-15.4" font-family="Times-12" font-size="14.00"> &#160;Module</text>
<polygon fill="#80b1d3" stroke="transparent" points="213,-10 213,-30 233,-30 233,-10 213,-10"/>
<text text-anchor="start" x="236.78" y="-15.4" font-family="Times-12" font-size="14.00"> &#160;Bootstrap</text>
<polygon fill="#fdb462" stroke="transparent" points="310,-10 310,-30 330,-30 330,-10 310,-10"/>
<text text-anchor="start" x="333.67" y="-15.4" font-family="Times-12" font-size="14.00"> &#160;Providers</text>
<polygon fill="#fb8072" stroke="transparent" points="406,-10 406,-30 426,-30 426,-10 406,-10"/>
<text text-anchor="start" x="429.73" y="-15.4" font-family="Times-12" font-size="14.00"> &#160;Exports</text>
<g id="clust1" class="cluster">
<title>cluster_UserModule</title>
<polygon fill="none" stroke="black" stroke-dasharray="1,5" points="34,-70 34,-268 462,-268 462,-70 34,-70"/>
</g>
<g id="clust4" class="cluster">
<title>cluster_UserModule_exports</title>
<polygon fill="none" stroke="black" points="70,-208 70,-260 386,-260 386,-208 70,-208"/>
</g>
<g id="clust6" class="cluster">
<title>cluster_UserModule_providers</title>
<polygon fill="none" stroke="black" points="42,-78 42,-130 454,-130 454,-78 42,-78"/>
</g>
<!-- OauthClientCredentialsService  -->
<g id="node1" class="node">
<title>OauthClientCredentialsService </title>
<polygon fill="#fb8072" stroke="black" points="377.67,-252 184.33,-252 184.33,-216 377.67,-216 377.67,-252"/>
<text text-anchor="middle" x="281" y="-229.8" font-family="Times,serif" font-size="14.00">OauthClientCredentialsService </text>
</g>
<!-- UserService  -->
<g id="node2" class="node">
<title>UserService </title>
<polygon fill="#fb8072" stroke="black" points="165.9,-252 78.1,-252 78.1,-216 165.9,-216 165.9,-252"/>
<text text-anchor="middle" x="122" y="-229.8" font-family="Times,serif" font-size="14.00">UserService </text>
</g>
<!-- UserModule -->
<g id="node3" class="node">
<title>UserModule</title>
<polygon fill="#8dd3c7" stroke="black" points="191.98,-187 188.98,-191 167.98,-191 164.98,-187 106.02,-187 106.02,-151 191.98,-151 191.98,-187"/>
<text text-anchor="middle" x="149" y="-164.8" font-family="Times,serif" font-size="14.00">UserModule</text>
</g>
<!-- UserModule&#45;&gt;OauthClientCredentialsService  -->
<g id="edge1" class="edge">
<title>UserModule&#45;&gt;OauthClientCredentialsService </title>
<path fill="none" stroke="black" stroke-dasharray="5,2" d="M188.08,-187.11C188.08,-187.11 188.08,-205.99 188.08,-205.99"/>
<polygon fill="black" stroke="black" points="184.58,-205.99 188.08,-215.99 191.58,-205.99 184.58,-205.99"/>
</g>
<!-- UserModule&#45;&gt;UserService  -->
<g id="edge2" class="edge">
<title>UserModule&#45;&gt;UserService </title>
<path fill="none" stroke="black" stroke-dasharray="5,2" d="M135.98,-187.11C135.98,-187.11 135.98,-205.99 135.98,-205.99"/>
<polygon fill="black" stroke="black" points="132.48,-205.99 135.98,-215.99 139.48,-205.99 132.48,-205.99"/>
</g>
<!-- OauthClientCredentialsService -->
<g id="node4" class="node">
<title>OauthClientCredentialsService</title>
<ellipse fill="#fdb462" stroke="black" cx="315" cy="-104" rx="131.35" ry="18"/>
<text text-anchor="middle" x="315" y="-99.8" font-family="Times,serif" font-size="14.00">OauthClientCredentialsService</text>
</g>
<!-- OauthClientCredentialsService&#45;&gt;UserModule -->
<g id="edge3" class="edge">
<title>OauthClientCredentialsService&#45;&gt;UserModule</title>
<path fill="none" stroke="black" d="M187.91,-108.67C187.91,-108.67 187.91,-140.74 187.91,-140.74"/>
<polygon fill="black" stroke="black" points="184.41,-140.74 187.91,-150.74 191.41,-140.74 184.41,-140.74"/>
</g>
<!-- UserService -->
<g id="node5" class="node">
<title>UserService</title>
<ellipse fill="#fdb462" stroke="black" cx="108" cy="-104" rx="58.44" ry="18"/>
<text text-anchor="middle" x="108" y="-99.8" font-family="Times,serif" font-size="14.00">UserService</text>
</g>
<!-- UserService&#45;&gt;UserModule -->
<g id="edge4" class="edge">
<title>UserService&#45;&gt;UserModule</title>
<path fill="none" stroke="black" d="M136.12,-120.07C136.12,-120.07 136.12,-140.82 136.12,-140.82"/>
<polygon fill="black" stroke="black" points="132.62,-140.82 136.12,-150.82 139.62,-140.82 132.62,-140.82"/>
</g>
</g>
</svg>
