<?xml version="1.0" encoding="UTF-8" standalone="no"?>
<!DOCTYPE svg PUBLIC "-//W3C//DTD SVG 1.1//EN"
 "http://www.w3.org/Graphics/SVG/1.1/DTD/svg11.dtd">
<!-- Generated by graphviz version 2.47.0 (20210316.0004)
 -->
<!-- Title: dependencies Pages: 1 -->
<svg width="716pt" height="284pt"
 viewBox="0.00 0.00 716.00 284.00" xmlns="http://www.w3.org/2000/svg" xmlns:xlink="http://www.w3.org/1999/xlink">
<g id="graph0" class="graph" transform="scale(1 1) rotate(0) translate(4 280)">
<title>dependencies</title>
<polygon fill="white" stroke="transparent" points="-4,4 -4,-280 712,-280 712,4 -4,4"/>
<text text-anchor="start" x="333.01" y="-42.4" font-family="Times-12" font-weight="bold" font-size="14.00">Legend</text>
<polygon fill="#ffffb3" stroke="transparent" points="120,-10 120,-30 140,-30 140,-10 120,-10"/>
<text text-anchor="start" x="143.63" y="-15.4" font-family="Times-12" font-size="14.00"> &#160;Declarations</text>
<polygon fill="#8dd3c7" stroke="transparent" points="233,-10 233,-30 253,-30 253,-10 233,-10"/>
<text text-anchor="start" x="256.73" y="-15.4" font-family="Times-12" font-size="14.00"> &#160;Module</text>
<polygon fill="#80b1d3" stroke="transparent" points="319,-10 319,-30 339,-30 339,-10 319,-10"/>
<text text-anchor="start" x="342.78" y="-15.4" font-family="Times-12" font-size="14.00"> &#160;Bootstrap</text>
<polygon fill="#fdb462" stroke="transparent" points="416,-10 416,-30 436,-30 436,-10 416,-10"/>
<text text-anchor="start" x="439.67" y="-15.4" font-family="Times-12" font-size="14.00"> &#160;Providers</text>
<polygon fill="#fb8072" stroke="transparent" points="512,-10 512,-30 532,-30 532,-10 512,-10"/>
<text text-anchor="start" x="535.73" y="-15.4" font-family="Times-12" font-size="14.00"> &#160;Exports</text>
<g id="clust1" class="cluster">
<title>cluster_InvitationModule</title>
<polygon fill="none" stroke="black" stroke-dasharray="1,5" points="8,-70 8,-268 700,-268 700,-70 8,-70"/>
</g>
<g id="clust3" class="cluster">
<title>cluster_InvitationModule_imports</title>
<polygon fill="none" stroke="black" points="196,-78 196,-130 692,-130 692,-78 196,-78"/>
</g>
<g id="clust6" class="cluster">
<title>cluster_InvitationModule_providers</title>
<polygon fill="none" stroke="black" points="16,-78 16,-130 188,-130 188,-78 16,-78"/>
</g>
<g id="clust4" class="cluster">
<title>cluster_InvitationModule_exports</title>
<polygon fill="none" stroke="black" points="303,-208 303,-260 435,-260 435,-208 303,-208"/>
</g>
<!-- MailModule -->
<g id="node1" class="node">
<title>MailModule</title>
<polygon fill="#8dd3c7" stroke="black" points="683.99,-122 680.99,-126 659.99,-126 656.99,-122 598.01,-122 598.01,-86 683.99,-86 683.99,-122"/>
<text text-anchor="middle" x="641" y="-99.8" font-family="Times,serif" font-size="14.00">MailModule</text>
</g>
<!-- InvitationModule -->
<g id="node5" class="node">
<title>InvitationModule</title>
<polygon fill="#8dd3c7" stroke="black" points="425.99,-187 422.99,-191 401.99,-191 398.99,-187 312.01,-187 312.01,-151 425.99,-151 425.99,-187"/>
<text text-anchor="middle" x="369" y="-164.8" font-family="Times,serif" font-size="14.00">InvitationModule</text>
</g>
<!-- MailModule&#45;&gt;InvitationModule -->
<g id="edge1" class="edge">
<title>MailModule&#45;&gt;InvitationModule</title>
<path fill="none" stroke="black" d="M641,-122.28C641,-143.32 641,-175 641,-175 641,-175 436.02,-175 436.02,-175"/>
<polygon fill="black" stroke="black" points="436.02,-171.5 426.02,-175 436.02,-178.5 436.02,-171.5"/>
</g>
<!-- OrganizationModule -->
<g id="node2" class="node">
<title>OrganizationModule</title>
<polygon fill="#8dd3c7" stroke="black" points="580.13,-122 577.13,-126 556.13,-126 553.13,-122 447.87,-122 447.87,-86 580.13,-86 580.13,-122"/>
<text text-anchor="middle" x="514" y="-99.8" font-family="Times,serif" font-size="14.00">OrganizationModule</text>
</g>
<!-- OrganizationModule&#45;&gt;InvitationModule -->
<g id="edge2" class="edge">
<title>OrganizationModule&#45;&gt;InvitationModule</title>
<path fill="none" stroke="black" d="M514,-122.02C514,-139.37 514,-163 514,-163 514,-163 436.31,-163 436.31,-163"/>
<polygon fill="black" stroke="black" points="436.31,-159.5 426.31,-163 436.31,-166.5 436.31,-159.5"/>
</g>
<!-- PermissionModule -->
<g id="node3" class="node">
<title>PermissionModule</title>
<polygon fill="#8dd3c7" stroke="black" points="429.77,-122 426.77,-126 405.77,-126 402.77,-122 308.23,-122 308.23,-86 429.77,-86 429.77,-122"/>
<text text-anchor="middle" x="369" y="-99.8" font-family="Times,serif" font-size="14.00">PermissionModule</text>
</g>
<!-- PermissionModule&#45;&gt;InvitationModule -->
<g id="edge3" class="edge">
<title>PermissionModule&#45;&gt;InvitationModule</title>
<path fill="none" stroke="black" d="M369,-122.11C369,-122.11 369,-140.99 369,-140.99"/>
<polygon fill="black" stroke="black" points="365.5,-140.99 369,-150.99 372.5,-140.99 365.5,-140.99"/>
</g>
<!-- UserModule -->
<g id="node4" class="node">
<title>UserModule</title>
<polygon fill="#8dd3c7" stroke="black" points="289.98,-122 286.98,-126 265.98,-126 262.98,-122 204.02,-122 204.02,-86 289.98,-86 289.98,-122"/>
<text text-anchor="middle" x="247" y="-99.8" font-family="Times,serif" font-size="14.00">UserModule</text>
</g>
<!-- UserModule&#45;&gt;InvitationModule -->
<g id="edge4" class="edge">
<title>UserModule&#45;&gt;InvitationModule</title>
<path fill="none" stroke="black" d="M247,-122.02C247,-139.37 247,-163 247,-163 247,-163 301.93,-163 301.93,-163"/>
<polygon fill="black" stroke="black" points="301.93,-166.5 311.93,-163 301.93,-159.5 301.93,-166.5"/>
</g>
<!-- InvitationService  -->
<g id="node6" class="node">
<title>InvitationService </title>
<polygon fill="#fb8072" stroke="black" points="426.92,-252 311.08,-252 311.08,-216 426.92,-216 426.92,-252"/>
<text text-anchor="middle" x="369" y="-229.8" font-family="Times,serif" font-size="14.00">InvitationService </text>
</g>
<!-- InvitationModule&#45;&gt;InvitationService  -->
<g id="edge5" class="edge">
<title>InvitationModule&#45;&gt;InvitationService </title>
<path fill="none" stroke="black" stroke-dasharray="5,2" d="M369,-187.11C369,-187.11 369,-205.99 369,-205.99"/>
<polygon fill="black" stroke="black" points="365.5,-205.99 369,-215.99 372.5,-205.99 365.5,-205.99"/>
</g>
<!-- InvitationService -->
<g id="node7" class="node">
<title>InvitationService</title>
<ellipse fill="#fdb462" stroke="black" cx="102" cy="-104" rx="77.58" ry="18"/>
<text text-anchor="middle" x="102" y="-99.8" font-family="Times,serif" font-size="14.00">InvitationService</text>
</g>
<!-- InvitationService&#45;&gt;InvitationModule -->
<g id="edge6" class="edge">
<title>InvitationService&#45;&gt;InvitationModule</title>
<path fill="none" stroke="black" d="M102,-122.28C102,-143.32 102,-175 102,-175 102,-175 301.72,-175 301.72,-175"/>
<polygon fill="black" stroke="black" points="301.72,-178.5 311.72,-175 301.72,-171.5 301.72,-178.5"/>
</g>
</g>
</svg>
