<?xml version="1.0" encoding="UTF-8" standalone="no"?>
<!DOCTYPE svg PUBLIC "-//W3C//DTD SVG 1.1//EN"
 "http://www.w3.org/Graphics/SVG/1.1/DTD/svg11.dtd">
<!-- Generated by graphviz version 2.47.0 (20210316.0004)
 -->
<!-- Title: dependencies Pages: 1 -->
<svg width="716pt" height="284pt"
 viewBox="0.00 0.00 716.00 284.00" xmlns="http://www.w3.org/2000/svg" xmlns:xlink="http://www.w3.org/1999/xlink">
<g id="graph0" class="graph" transform="scale(1 1) rotate(0) translate(4 280)">
<title>dependencies</title>
<polygon fill="white" stroke="transparent" points="-4,4 -4,-280 712,-280 712,4 -4,4"/>
<text text-anchor="start" x="333.01" y="-42.4" font-family="Times-12" font-weight="bold" font-size="14.00">Legend</text>
<polygon fill="#ffffb3" stroke="transparent" points="120,-10 120,-30 140,-30 140,-10 120,-10"/>
<text text-anchor="start" x="143.63" y="-15.4" font-family="Times-12" font-size="14.00"> &#160;Declarations</text>
<polygon fill="#8dd3c7" stroke="transparent" points="233,-10 233,-30 253,-30 253,-10 233,-10"/>
<text text-anchor="start" x="256.73" y="-15.4" font-family="Times-12" font-size="14.00"> &#160;Module</text>
<polygon fill="#80b1d3" stroke="transparent" points="319,-10 319,-30 339,-30 339,-10 319,-10"/>
<text text-anchor="start" x="342.78" y="-15.4" font-family="Times-12" font-size="14.00"> &#160;Bootstrap</text>
<polygon fill="#fdb462" stroke="transparent" points="416,-10 416,-30 436,-30 436,-10 416,-10"/>
<text text-anchor="start" x="439.67" y="-15.4" font-family="Times-12" font-size="14.00"> &#160;Providers</text>
<polygon fill="#fb8072" stroke="transparent" points="512,-10 512,-30 532,-30 532,-10 512,-10"/>
<text text-anchor="start" x="535.73" y="-15.4" font-family="Times-12" font-size="14.00"> &#160;Exports</text>
<g id="clust1" class="cluster">
<title>cluster_InvitationModule</title>
<polygon fill="none" stroke="black" stroke-dasharray="1,5" points="8,-70 8,-268 700,-268 700,-70 8,-70"/>
</g>
<g id="clust4" class="cluster">
<title>cluster_InvitationModule_exports</title>
<polygon fill="none" stroke="black" points="268,-208 268,-260 400,-260 400,-208 268,-208"/>
</g>
<g id="clust6" class="cluster">
<title>cluster_InvitationModule_providers</title>
<polygon fill="none" stroke="black" points="520,-78 520,-130 692,-130 692,-78 520,-78"/>
</g>
<g id="clust3" class="cluster">
<title>cluster_InvitationModule_imports</title>
<polygon fill="none" stroke="black" points="16,-78 16,-130 512,-130 512,-78 16,-78"/>
</g>
<!-- MailModule -->
<g id="node1" class="node">
<title>MailModule</title>
<polygon fill="#8dd3c7" stroke="black" points="503.99,-122 500.99,-126 479.99,-126 476.99,-122 418.01,-122 418.01,-86 503.99,-86 503.99,-122"/>
<text text-anchor="middle" x="461" y="-99.8" font-family="Times,serif" font-size="14.00">MailModule</text>
</g>
<!-- InvitationModule -->
<g id="node5" class="node">
<title>InvitationModule</title>
<polygon fill="#8dd3c7" stroke="black" points="390.99,-187 387.99,-191 366.99,-191 363.99,-187 277.01,-187 277.01,-151 390.99,-151 390.99,-187"/>
<text text-anchor="middle" x="334" y="-164.8" font-family="Times,serif" font-size="14.00">InvitationModule</text>
</g>
<!-- MailModule&#45;&gt;InvitationModule -->
<g id="edge1" class="edge">
<title>MailModule&#45;&gt;InvitationModule</title>
<path fill="none" stroke="black" d="M461,-122.02C461,-139.37 461,-163 461,-163 461,-163 401.18,-163 401.18,-163"/>
<polygon fill="black" stroke="black" points="401.18,-159.5 391.18,-163 401.18,-166.5 401.18,-159.5"/>
</g>
<!-- OrganizationModule -->
<g id="node2" class="node">
<title>OrganizationModule</title>
<polygon fill="#8dd3c7" stroke="black" points="400.13,-122 397.13,-126 376.13,-126 373.13,-122 267.87,-122 267.87,-86 400.13,-86 400.13,-122"/>
<text text-anchor="middle" x="334" y="-99.8" font-family="Times,serif" font-size="14.00">OrganizationModule</text>
</g>
<!-- OrganizationModule&#45;&gt;InvitationModule -->
<g id="edge2" class="edge">
<title>OrganizationModule&#45;&gt;InvitationModule</title>
<path fill="none" stroke="black" d="M334,-122.11C334,-122.11 334,-140.99 334,-140.99"/>
<polygon fill="black" stroke="black" points="330.5,-140.99 334,-150.99 337.5,-140.99 330.5,-140.99"/>
</g>
<!-- PermissionModule -->
<g id="node3" class="node">
<title>PermissionModule</title>
<polygon fill="#8dd3c7" stroke="black" points="249.77,-122 246.77,-126 225.77,-126 222.77,-122 128.23,-122 128.23,-86 249.77,-86 249.77,-122"/>
<text text-anchor="middle" x="189" y="-99.8" font-family="Times,serif" font-size="14.00">PermissionModule</text>
</g>
<!-- PermissionModule&#45;&gt;InvitationModule -->
<g id="edge3" class="edge">
<title>PermissionModule&#45;&gt;InvitationModule</title>
<path fill="none" stroke="black" d="M189,-122.02C189,-139.37 189,-163 189,-163 189,-163 266.69,-163 266.69,-163"/>
<polygon fill="black" stroke="black" points="266.69,-166.5 276.69,-163 266.69,-159.5 266.69,-166.5"/>
</g>
<!-- UserModule -->
<g id="node4" class="node">
<title>UserModule</title>
<polygon fill="#8dd3c7" stroke="black" points="109.98,-122 106.98,-126 85.98,-126 82.98,-122 24.02,-122 24.02,-86 109.98,-86 109.98,-122"/>
<text text-anchor="middle" x="67" y="-99.8" font-family="Times,serif" font-size="14.00">UserModule</text>
</g>
<!-- UserModule&#45;&gt;InvitationModule -->
<g id="edge4" class="edge">
<title>UserModule&#45;&gt;InvitationModule</title>
<path fill="none" stroke="black" d="M67,-122.28C67,-143.32 67,-175 67,-175 67,-175 266.72,-175 266.72,-175"/>
<polygon fill="black" stroke="black" points="266.72,-178.5 276.72,-175 266.72,-171.5 266.72,-178.5"/>
</g>
<!-- InvitationService  -->
<g id="node6" class="node">
<title>InvitationService </title>
<polygon fill="#fb8072" stroke="black" points="391.92,-252 276.08,-252 276.08,-216 391.92,-216 391.92,-252"/>
<text text-anchor="middle" x="334" y="-229.8" font-family="Times,serif" font-size="14.00">InvitationService </text>
</g>
<!-- InvitationModule&#45;&gt;InvitationService  -->
<g id="edge5" class="edge">
<title>InvitationModule&#45;&gt;InvitationService </title>
<path fill="none" stroke="black" stroke-dasharray="5,2" d="M334,-187.11C334,-187.11 334,-205.99 334,-205.99"/>
<polygon fill="black" stroke="black" points="330.5,-205.99 334,-215.99 337.5,-205.99 330.5,-205.99"/>
</g>
<!-- InvitationService -->
<g id="node7" class="node">
<title>InvitationService</title>
<ellipse fill="#fdb462" stroke="black" cx="606" cy="-104" rx="77.58" ry="18"/>
<text text-anchor="middle" x="606" y="-99.8" font-family="Times,serif" font-size="14.00">InvitationService</text>
</g>
<!-- InvitationService&#45;&gt;InvitationModule -->
<g id="edge6" class="edge">
<title>InvitationService&#45;&gt;InvitationModule</title>
<path fill="none" stroke="black" d="M606,-122.28C606,-143.32 606,-175 606,-175 606,-175 401.02,-175 401.02,-175"/>
<polygon fill="black" stroke="black" points="401.02,-171.5 391.02,-175 401.02,-178.5 401.02,-171.5"/>
</g>
</g>
</svg>
