<?xml version="1.0" encoding="UTF-8" standalone="no"?>
<!DOCTYPE svg PUBLIC "-//W3C//DTD SVG 1.1//EN"
 "http://www.w3.org/Graphics/SVG/1.1/DTD/svg11.dtd">
<!-- Generated by graphviz version 2.47.0 (20210316.0004)
 -->
<!-- Title: dependencies Pages: 1 -->
<svg width="562pt" height="211pt"
 viewBox="0.00 0.00 562.00 211.00" xmlns="http://www.w3.org/2000/svg" xmlns:xlink="http://www.w3.org/1999/xlink">
<g id="graph0" class="graph" transform="scale(1 1) rotate(0) translate(4 207)">
<title>dependencies</title>
<polygon fill="white" stroke="transparent" points="-4,4 -4,-207 558,-207 558,4 -4,4"/>
<text text-anchor="start" x="256.01" y="-42.4" font-family="Times-12" font-weight="bold" font-size="14.00">Legend</text>
<polygon fill="#ffffb3" stroke="transparent" points="43,-10 43,-30 63,-30 63,-10 43,-10"/>
<text text-anchor="start" x="66.63" y="-15.4" font-family="Times-12" font-size="14.00"> &#160;Declarations</text>
<polygon fill="#8dd3c7" stroke="transparent" points="156,-10 156,-30 176,-30 176,-10 156,-10"/>
<text text-anchor="start" x="179.73" y="-15.4" font-family="Times-12" font-size="14.00"> &#160;Module</text>
<polygon fill="#80b1d3" stroke="transparent" points="242,-10 242,-30 262,-30 262,-10 242,-10"/>
<text text-anchor="start" x="265.78" y="-15.4" font-family="Times-12" font-size="14.00"> &#160;Bootstrap</text>
<polygon fill="#fdb462" stroke="transparent" points="339,-10 339,-30 359,-30 359,-10 339,-10"/>
<text text-anchor="start" x="362.67" y="-15.4" font-family="Times-12" font-size="14.00"> &#160;Providers</text>
<polygon fill="#fb8072" stroke="transparent" points="435,-10 435,-30 455,-30 455,-10 435,-10"/>
<text text-anchor="start" x="458.73" y="-15.4" font-family="Times-12" font-size="14.00"> &#160;Exports</text>
<g id="clust1" class="cluster">
<title>cluster_AdminModule</title>
<polygon fill="none" stroke="black" stroke-dasharray="1,5" points="8,-70 8,-195 546,-195 546,-70 8,-70"/>
</g>
<g id="clust3" class="cluster">
<title>cluster_AdminModule_imports</title>
<polygon fill="none" stroke="black" points="16,-78 16,-130 538,-130 538,-78 16,-78"/>
</g>
<!-- DeviceGroupModule -->
<g id="node1" class="node">
<title>DeviceGroupModule</title>
<polygon fill="#8dd3c7" stroke="black" points="530.46,-122 527.46,-126 506.46,-126 503.46,-122 395.54,-122 395.54,-86 530.46,-86 530.46,-122"/>
<text text-anchor="middle" x="463" y="-99.8" font-family="Times,serif" font-size="14.00">DeviceGroupModule</text>
</g>
<!-- AdminModule -->
<g id="node5" class="node">
<title>AdminModule</title>
<polygon fill="#8dd3c7" stroke="black" points="310.44,-187 307.44,-191 286.44,-191 283.44,-187 211.56,-187 211.56,-151 310.44,-151 310.44,-187"/>
<text text-anchor="middle" x="261" y="-164.8" font-family="Times,serif" font-size="14.00">AdminModule</text>
</g>
<!-- DeviceGroupModule&#45;&gt;AdminModule -->
<g id="edge1" class="edge">
<title>DeviceGroupModule&#45;&gt;AdminModule</title>
<path fill="none" stroke="black" d="M463,-122.11C463,-141.34 463,-169 463,-169 463,-169 320.41,-169 320.41,-169"/>
<polygon fill="black" stroke="black" points="320.41,-165.5 310.41,-169 320.41,-172.5 320.41,-165.5"/>
</g>
<!-- DeviceModule -->
<g id="node2" class="node">
<title>DeviceModule</title>
<polygon fill="#8dd3c7" stroke="black" points="377.69,-122 374.69,-126 353.69,-126 350.69,-122 278.31,-122 278.31,-86 377.69,-86 377.69,-122"/>
<text text-anchor="middle" x="328" y="-99.8" font-family="Times,serif" font-size="14.00">DeviceModule</text>
</g>
<!-- DeviceModule&#45;&gt;AdminModule -->
<g id="edge2" class="edge">
<title>DeviceModule&#45;&gt;AdminModule</title>
<path fill="none" stroke="black" d="M294.31,-122.11C294.31,-122.11 294.31,-140.99 294.31,-140.99"/>
<polygon fill="black" stroke="black" points="290.81,-140.99 294.31,-150.99 297.81,-140.99 290.81,-140.99"/>
</g>
<!-- OrganizationModule -->
<g id="node3" class="node">
<title>OrganizationModule</title>
<polygon fill="#8dd3c7" stroke="black" points="260.13,-122 257.13,-126 236.13,-126 233.13,-122 127.87,-122 127.87,-86 260.13,-86 260.13,-122"/>
<text text-anchor="middle" x="194" y="-99.8" font-family="Times,serif" font-size="14.00">OrganizationModule</text>
</g>
<!-- OrganizationModule&#45;&gt;AdminModule -->
<g id="edge3" class="edge">
<title>OrganizationModule&#45;&gt;AdminModule</title>
<path fill="none" stroke="black" d="M236.05,-122.11C236.05,-122.11 236.05,-140.99 236.05,-140.99"/>
<polygon fill="black" stroke="black" points="232.55,-140.99 236.05,-150.99 239.55,-140.99 232.55,-140.99"/>
</g>
<!-- UserModule -->
<g id="node4" class="node">
<title>UserModule</title>
<polygon fill="#8dd3c7" stroke="black" points="109.98,-122 106.98,-126 85.98,-126 82.98,-122 24.02,-122 24.02,-86 109.98,-86 109.98,-122"/>
<text text-anchor="middle" x="67" y="-99.8" font-family="Times,serif" font-size="14.00">UserModule</text>
</g>
<!-- UserModule&#45;&gt;AdminModule -->
<g id="edge4" class="edge">
<title>UserModule&#45;&gt;AdminModule</title>
<path fill="none" stroke="black" d="M67,-122.11C67,-141.34 67,-169 67,-169 67,-169 201.54,-169 201.54,-169"/>
<polygon fill="black" stroke="black" points="201.54,-172.5 211.54,-169 201.54,-165.5 201.54,-172.5"/>
</g>
</g>
</svg>
